<svg version="1.1" id="Layer_1" xmlns="http://www.w3.org/2000/svg" xmlns:xlink="http://www.w3.org/1999/xlink" x="0px" y="0px"
	 width="100%" viewBox="0 0 800 214" enable-background="new 0 0 800 214" xml:space="preserve">
<path fill="#FDFEFD" opacity="1.000000" stroke="none" 
	d="
M525.000000,215.000000 
	C350.000031,215.000000 175.500046,215.000000 1.000047,215.000000 
	C1.000031,143.666702 1.000031,72.333389 1.000016,1.000066 
	C267.666595,1.000044 534.333191,1.000044 800.999878,1.000022 
	C800.999878,72.333260 800.999878,143.666519 800.999939,214.999893 
	C709.166687,215.000000 617.333313,215.000000 525.000000,215.000000 
M640.907959,97.526634 
	C640.630493,97.340599 640.353027,97.154556 639.619324,96.654190 
	C639.373901,96.167442 639.128540,95.680695 638.968872,94.440788 
	C638.238159,93.694687 637.507385,92.948586 636.976929,91.996712 
	C636.976929,91.996712 636.789917,92.213959 636.777954,91.674759 
	C636.507446,91.456200 636.236877,91.237640 635.431091,90.613853 
	C621.837036,70.862534 608.221802,51.125687 594.657043,31.354261 
	C586.891174,20.034952 586.928040,20.009645 573.218689,20.362679 
	C560.465759,20.691084 554.987549,25.490530 554.874023,38.212784 
	C554.517456,78.200798 554.580811,118.192589 554.511475,158.182968 
	C554.510132,158.952148 554.875122,159.721954 555.052246,160.424164 
	C565.725159,160.424164 576.157898,160.424164 587.215027,160.424164 
	C587.215027,131.981018 587.215027,103.826958 587.215027,74.464241 
	C588.891907,76.738655 589.797668,77.899994 590.632996,79.109940 
	C608.608032,105.146667 626.531738,131.219193 644.642761,157.160965 
	C645.836914,158.871399 648.443787,160.611252 650.402405,160.621323 
	C685.229370,160.800507 720.057983,160.778839 754.885620,160.642746 
	C764.841858,160.603851 772.782837,156.269196 778.835449,148.309433 
	C790.457336,133.025558 792.210571,102.982750 769.949524,86.427940 
	C778.307922,77.068581 780.872620,65.898666 780.146301,53.626583 
	C778.933594,33.138126 765.377258,20.243778 744.948059,20.241871 
	C714.291443,20.239008 683.634827,20.139553 652.848877,19.706966 
	C652.568909,19.821541 652.288940,19.936115 651.261658,20.205708 
	C650.504028,20.157530 649.746460,20.109352 648.687866,19.576872 
	C648.199036,19.849396 647.710144,20.121918 647.100098,20.942926 
	C646.979919,21.297552 646.859741,21.652178 646.263000,22.536070 
	C646.410339,24.360388 646.557678,26.184706 646.833008,28.750868 
	C646.767395,29.495337 646.701721,30.239805 645.892578,31.019796 
	C644.929138,32.711945 643.146118,34.395329 643.127930,36.097569 
	C642.927612,54.839207 643.048706,73.584023 642.951599,92.327301 
	C642.936829,95.170738 643.932800,96.324425 646.883667,96.817917 
	C646.838745,98.193207 646.793823,99.568497 645.982666,100.962936 
	C644.961670,100.997108 643.940674,101.031281 643.004883,101.013062 
	C643.004883,101.013062 642.931519,101.081970 642.907166,100.582542 
	C642.767578,100.243675 642.517334,100.042229 641.886780,99.703964 
	C641.886780,99.703964 641.813171,99.326424 641.808472,98.749535 
	C641.523560,98.513161 641.238647,98.276787 641.000000,98.000305 
	C641.000000,98.000305 640.956848,98.043945 640.907959,97.526634 
M216.202606,110.253120 
	C216.300262,110.587952 216.507095,110.829109 217.085861,111.489922 
	C217.103516,111.870377 217.121170,112.250824 217.049606,113.527222 
	C216.822876,117.614296 217.606064,121.306610 221.029907,123.970520 
	C221.029907,123.970520 221.071732,123.885376 221.109070,124.293633 
	C221.188492,124.568542 221.349075,124.782532 221.932510,125.478172 
	C221.992203,125.897362 222.051895,126.316551 221.965454,127.538292 
	C222.014709,129.682648 221.432632,132.100174 222.221893,133.924362 
	C225.742416,142.061081 231.543076,149.627914 227.581787,159.471008 
	C229.319977,158.992798 231.113739,158.499298 233.287735,158.595001 
	C234.820587,159.380692 236.353424,160.166367 238.482361,160.996689 
	C238.681351,160.986664 238.880356,160.976654 239.508240,160.839325 
	C239.508240,160.839325 239.935669,160.971420 240.506119,161.003159 
	C240.696136,160.990601 240.886169,160.978027 241.957458,160.786407 
	C244.952408,160.848511 247.947342,160.910599 251.514603,161.002411 
	C251.705154,160.989075 251.895706,160.975739 252.646118,160.772095 
	C253.231995,160.776550 253.817856,160.780991 255.250351,160.858200 
	C259.255096,156.998535 259.774506,151.465668 261.863556,146.704239 
	C262.568817,145.096710 261.858124,142.867935 261.842529,140.247650 
	C262.023010,139.837234 262.203491,139.426819 263.027618,138.841980 
	C265.332214,133.138367 267.770142,127.483238 269.870972,121.705536 
	C270.632812,119.610321 270.588837,117.222092 270.882172,114.288948 
	C271.033356,113.867676 271.184540,113.446404 272.052155,112.988785 
	C278.191223,105.232407 279.298950,95.805496 280.787445,85.971916 
	C280.930847,85.636436 281.074219,85.300964 281.630066,84.575623 
	C281.698578,84.207520 281.767090,83.839424 281.790833,82.821480 
	C282.032440,82.228584 282.274048,81.635689 283.268585,81.084427 
	C283.843872,81.929207 284.877167,82.749702 284.923462,83.622528 
	C285.376801,92.171761 285.868530,100.727623 285.956757,109.285645 
	C286.114655,124.603882 285.938965,139.925552 286.094696,155.243835 
	C286.110901,156.833542 287.422577,158.410065 288.810577,160.419189 
	C299.377808,160.419189 309.945068,160.419189 320.997559,160.419189 
	C320.997559,113.678055 320.997559,67.326141 320.833160,20.192694 
	C319.338898,19.794071 317.852295,19.089014 316.349030,19.051613 
	C310.811737,18.913841 305.268951,18.997368 299.728210,18.997419 
	C289.383606,18.997517 279.038971,18.997448 269.536133,18.997448 
	C268.721558,21.888851 267.860779,24.944311 266.999969,27.129930 
	C266.848419,24.939806 266.696838,22.749681 266.464935,19.398878 
	C264.819824,23.435493 263.686279,26.049021 262.686829,28.712862 
	C261.511810,31.844616 262.358917,33.823288 265.690094,34.705811 
	C265.464966,36.482822 265.239838,38.259834 265.031708,40.540195 
	C264.955719,40.689896 264.879730,40.839592 264.092194,41.104115 
	C263.117462,44.460522 262.142731,47.816929 261.214050,51.081844 
	C261.214050,51.081844 261.233337,51.182419 260.549988,51.006985 
	C259.541382,50.508846 258.532806,50.010708 257.171295,49.338272 
	C257.920013,52.401913 258.517242,54.845562 259.138123,57.910900 
	C258.980530,58.289150 258.822937,58.667397 258.332825,59.319904 
	C258.143707,59.557999 258.062042,59.828552 258.052460,60.035019 
	C258.052460,60.035019 258.141296,60.086739 257.392426,60.144878 
	C254.060974,67.618217 250.064697,74.884674 250.212921,83.749138 
	C250.212921,83.749138 249.991760,83.999870 249.295441,84.110527 
	C248.415863,85.606903 247.798767,87.379150 246.589859,88.529419 
	C245.098434,89.948517 243.114639,90.850151 241.028473,91.442467 
	C240.989258,91.036064 240.950027,90.629654 240.981476,89.353218 
	C240.652618,86.569717 240.323761,83.786224 240.635284,80.738083 
	C242.015091,82.070259 243.394897,83.402435 245.285385,85.227661 
	C245.831299,83.160515 246.292343,81.414726 247.031631,78.615334 
	C244.016846,78.385628 241.507294,78.194412 238.452347,77.526733 
	C236.651505,74.016754 234.850662,70.506775 232.836929,66.666168 
	C232.836929,66.666168 232.897644,66.277649 232.885834,65.810692 
	C232.816635,65.490028 232.645218,65.239304 232.030457,64.449661 
	C231.957642,63.993279 231.884811,63.536900 232.404892,62.672356 
	C232.043030,60.999477 231.743362,59.310093 231.304855,57.657551 
	C230.633804,55.128708 229.813095,52.639294 229.154785,50.107433 
	C228.368134,47.082020 227.959137,43.929153 226.889221,41.014011 
	C225.534378,37.322491 223.536224,33.871323 222.083511,30.210155 
	C220.882568,27.183504 220.307510,23.895113 218.969055,20.943081 
	C218.441727,19.780005 216.594025,18.485975 215.350311,18.488729 
	C200.921326,18.520693 186.492203,18.755537 172.065155,19.040857 
	C170.348801,19.074802 168.644669,19.727114 166.010513,20.200985 
	C157.696594,20.217720 149.376663,20.062056 141.072220,20.350973 
	C138.406799,20.443703 135.492966,21.205725 133.188477,22.526466 
	C122.521927,28.639643 112.018707,35.038700 101.477852,41.370094 
	C85.247513,51.118893 69.034233,60.896076 52.158085,70.077461 
	C51.812016,67.642853 51.187145,65.210564 51.166847,62.773239 
	C51.064335,50.464836 51.130974,38.155098 51.105629,25.845890 
	C51.102020,24.093681 50.920013,22.341839 50.825695,20.680016 
	C39.921234,20.680016 29.570724,20.680016 18.941433,20.680016 
	C18.941433,30.114204 18.817940,39.087284 19.066988,48.050007 
	C19.106966,49.488693 20.498569,51.344685 21.796576,52.220020 
	C30.473930,58.071754 39.265450,63.756969 48.102871,69.365517 
	C49.398453,70.187744 51.134716,70.315575 52.199364,71.309860 
	C52.664276,71.941864 53.000004,72.768280 53.613838,73.176178 
	C60.717556,77.896652 67.863342,82.553825 74.983292,87.953201 
	C74.322197,90.302132 73.661095,92.651070 72.377678,94.693588 
	C69.226669,93.480125 66.075653,92.266670 62.990322,91.002899 
	C62.990322,91.002899 62.953976,91.077217 62.914406,90.338081 
	C60.907104,89.252892 58.899803,88.167702 56.984722,87.022919 
	C56.984722,87.022919 56.926548,87.116043 56.909775,86.377342 
	C54.376942,80.141373 54.172745,80.033394 50.322914,83.099800 
	C49.885166,82.718369 49.447422,82.336945 48.761742,81.511192 
	C48.462948,81.365807 48.164150,81.220428 47.961811,81.054909 
	C47.961811,81.054909 47.905884,81.136032 47.974316,80.362053 
	C48.266270,78.815453 48.558228,77.268845 49.029839,74.770531 
	C43.976601,78.527466 41.513252,74.613762 38.331955,72.737007 
	C37.155617,72.043037 35.442287,72.259331 33.380527,71.986694 
	C32.928673,71.615021 32.476822,71.243347 31.759216,70.463173 
	C31.522919,70.214508 31.233528,70.080185 30.982296,70.034248 
	C30.982296,70.034248 30.924948,70.109825 30.975224,69.299164 
	C30.467918,68.230721 30.247372,66.735947 29.403288,66.168198 
	C25.890152,63.805161 22.189211,61.721336 18.557163,59.535088 
	C18.024132,59.752598 17.491100,59.970108 16.958069,60.187618 
	C17.536936,62.462955 18.115801,64.738289 18.893749,67.837166 
	C18.832037,69.241776 18.770325,70.646378 18.316553,72.446930 
	C18.452305,73.281837 18.588055,74.116745 18.906658,75.878662 
	C18.840544,98.598366 18.774429,121.318062 18.166904,144.412781 
	C18.348133,145.946320 18.529364,147.479874 18.876230,149.747940 
	C18.819748,150.494232 18.763266,151.240509 18.038433,152.175415 
	C18.318264,154.785721 18.598095,157.396042 19.526340,160.551132 
	C25.686068,160.609360 31.847504,160.780701 38.004948,160.687759 
	C42.425934,160.621033 46.841591,160.201126 51.716194,159.442001 
	C51.605934,151.658936 51.495674,143.875870 51.196812,135.209427 
	C51.259922,133.108719 51.323029,131.007996 51.796082,128.285599 
	C52.732346,125.576691 50.202660,120.860962 56.001369,121.001358 
	C56.001369,121.001358 56.016739,120.975548 55.997849,121.788368 
	C55.764637,124.035751 55.531422,126.283127 55.298210,128.530502 
	C55.670723,128.600952 56.043240,128.671402 56.415752,128.741837 
	C57.321918,127.546097 58.228085,126.350349 58.870388,125.502792 
	C61.238350,126.059036 63.148994,126.507851 65.000549,126.996521 
	C65.000549,126.996521 65.039566,126.936836 65.077927,127.646149 
	C69.664177,131.688370 74.030067,136.026489 78.916496,139.665649 
	C82.017471,141.975082 86.081573,142.946884 89.383476,145.039658 
	C97.573532,150.230591 105.526276,155.795776 113.711609,160.994522 
	C114.725792,161.638657 116.571861,160.973022 118.956711,160.769302 
	C131.964050,160.826385 144.971405,160.883469 158.266785,161.414169 
	C158.849869,161.261368 159.432968,161.108566 160.800201,160.800095 
	C161.861542,160.854263 162.922882,160.908417 164.445129,161.517883 
	C165.975601,161.314194 167.506073,161.110504 169.958832,160.749817 
	C179.901932,160.811417 189.845047,160.873001 200.333054,160.794205 
	C200.546463,160.498764 200.759872,160.203323 200.886078,158.985458 
	C200.948013,132.991592 201.009933,106.997719 201.831573,81.018044 
	C206.460037,83.067719 206.326004,87.869194 208.046448,91.630943 
	C210.116180,96.156425 212.449493,100.561348 214.981918,105.609390 
	C215.055878,106.046585 215.129837,106.483772 214.623016,107.309097 
	C215.178543,108.132866 215.734070,108.956627 216.223877,109.882286 
	C216.223877,109.882286 216.205505,109.762436 216.202606,110.253120 
M361.959076,157.727829 
	C376.058380,161.394028 390.275482,161.295898 404.539764,158.959015 
	C430.610199,154.687958 445.035614,137.779556 445.062592,111.505432 
	C445.082611,92.009750 445.155823,72.513275 444.988525,53.019005 
	C444.956482,49.280903 446.086395,48.077351 449.811859,48.162518 
	C459.304901,48.379524 468.813477,48.460003 478.300751,48.143112 
	C482.698578,47.996220 483.957275,49.287670 483.932648,53.733673 
	C483.747070,87.225304 483.822540,120.718399 483.837280,154.211044 
	C483.838196,156.292374 484.014984,158.373642 484.114166,160.546707 
	C494.960144,160.546707 505.219635,160.546707 516.132263,160.546707 
	C516.132263,158.353287 516.132202,156.406769 516.132263,154.460266 
	C516.133850,123.633667 516.135620,92.807076 516.136902,61.980480 
	C516.137451,48.234196 516.137024,48.235863 529.917908,48.244717 
	C536.495422,48.248943 543.072937,48.245445 549.915283,48.245445 
	C550.114990,38.079975 548.923035,28.331020 557.281860,20.567945 
	C508.722321,20.567945 461.042664,20.567945 412.922424,20.567945 
	C412.922424,22.746838 412.921906,24.552155 412.922485,26.357471 
	C412.931854,54.851154 413.006470,83.345024 412.922028,111.838432 
	C412.882446,125.200989 406.164734,132.154083 392.884796,133.061172 
	C391.225311,133.174545 389.571014,133.434601 387.911377,133.464981 
	C372.907227,133.739594 360.621185,128.742813 360.811249,110.001984 
	C360.894043,101.838226 360.792419,93.672684 360.789001,85.507957 
	C360.780609,65.345703 360.829956,45.183086 360.681244,25.021910 
	C360.669647,23.445808 359.338623,20.536623 358.551666,20.512600 
	C348.453796,20.204338 338.343323,20.309006 328.244904,20.309006 
	C328.007416,21.547934 327.776642,22.189165 327.777130,22.830223 
	C327.800415,53.155949 327.479614,83.487953 328.002747,113.805344 
	C328.404175,137.069504 339.021881,150.360489 361.959076,157.727829 
M416.360107,196.218658 
	C418.605530,198.550735 419.184204,203.440964 424.557465,201.446716 
	C424.557465,194.758316 424.647888,188.126160 424.466827,181.501404 
	C424.437256,180.420166 423.208984,179.371689 422.534729,178.308060 
	C421.787842,179.484055 420.495422,180.616287 420.396973,181.844284 
	C420.108124,185.446762 420.294067,189.087296 420.294067,192.818222 
	C413.789795,188.747421 414.207062,178.362411 404.282043,178.202744 
	C404.282043,186.469650 404.282043,194.040115 404.282043,201.930099 
	C405.725525,201.813309 406.911133,201.717377 408.595367,201.581085 
	C408.595367,196.391403 408.595367,191.554886 408.595367,186.718353 
	C408.901703,186.633972 409.208038,186.549606 409.514374,186.465225 
	C411.653839,189.521866 413.793304,192.578506 416.360107,196.218658 
M344.190643,182.198288 
	C342.466583,178.909927 340.221252,176.990555 336.198090,179.131958 
	C336.198090,185.696198 336.274536,192.165527 336.166382,198.631775 
	C336.110901,201.950012 337.401825,202.622452 340.747864,201.165863 
	C340.747864,196.346649 340.747864,191.519745 340.747864,186.329224 
	C347.090515,190.878784 347.718933,200.262695 356.787567,202.653015 
	C356.787567,194.604950 356.902161,187.650040 356.659943,180.707581 
	C356.624939,179.704254 354.876343,178.760727 353.920746,177.789520 
	C353.429016,178.085968 352.937286,178.382416 352.445557,178.678848 
	C352.445557,183.343613 352.445557,188.008377 352.445557,192.673126 
	C352.133820,192.741760 351.822052,192.810394 351.510315,192.879028 
	C349.212677,189.519577 346.915039,186.160110 344.190643,182.198288 
M500.944397,201.969452 
	C501.903809,201.039749 503.652863,200.143234 503.693573,199.174911 
	C503.944336,193.208557 503.766510,187.225601 503.820282,181.248993 
	C503.850555,177.883316 502.206665,177.898819 499.414948,178.944107 
	C499.414948,183.613419 499.414948,188.150864 499.414948,194.153366 
	C495.917908,189.050949 493.057770,185.266769 490.638245,181.219193 
	C488.840546,178.211777 486.670807,177.660614 483.233887,178.933670 
	C483.233887,185.697144 483.104095,192.474686 483.363403,199.237320 
	C483.405914,200.346344 485.160553,201.389740 486.123901,202.463470 
	C486.678802,202.167694 487.233734,201.871918 487.788635,201.576141 
	C487.788635,196.610352 487.788635,191.644562 487.788635,185.642136 
	C492.424072,191.737045 496.286224,196.815201 500.944397,201.969452 
M590.897034,178.338562 
	C589.612244,178.398239 588.327515,178.457932 586.838867,178.527084 
	C586.838867,186.384338 586.838867,193.971802 586.838867,201.511276 
	C589.857544,202.634750 590.967712,201.694092 590.853882,198.670853 
	C590.698120,194.534454 590.815002,190.387817 590.815002,185.835846 
	C597.106873,190.982056 598.157654,199.894287 606.666504,202.693237 
	C606.666504,193.944366 606.666504,186.225845 606.666504,177.143127 
	C599.609985,181.763718 605.221375,188.644135 602.039551,193.103210 
	C598.533569,188.193848 595.083618,183.362839 590.897034,178.338562 
M754.493103,197.840134 
	C758.668884,190.257050 756.781982,182.070328 750.166992,179.070343 
	C744.702454,176.592133 738.371216,178.435104 735.291992,183.400284 
	C732.056458,188.617538 732.996704,196.247849 737.316895,199.831802 
	C741.913208,203.644882 748.702332,203.080963 754.493103,197.840134 
M457.806427,185.686050 
	C455.713654,193.481628 458.268951,199.791153 464.320496,201.770554 
	C470.595001,203.822876 476.811981,201.218430 479.340149,195.478424 
	C481.960754,189.528473 479.717316,182.303299 474.361389,179.443970 
	C468.265106,176.189392 462.131531,178.246704 457.806427,185.686050 
M543.465149,180.860748 
	C542.581482,182.050720 541.523621,183.149597 540.845398,184.446945 
	C538.341370,189.236908 539.236206,195.740585 542.754822,199.264465 
	C546.054199,202.568787 552.920288,203.340744 557.140747,200.881866 
	C561.543152,198.316986 563.843811,192.766205 562.673828,187.532242 
	C560.722473,178.802567 552.637695,175.691101 543.465149,180.860748 
M657.199890,194.386978 
	C659.281738,185.634094 654.795105,178.474030 646.959839,178.045135 
	C640.810120,177.708511 636.094177,181.333969 634.747925,187.433212 
	C633.360352,193.719620 635.984802,199.454742 641.193115,201.517868 
	C647.550781,204.036285 653.117798,201.790970 657.199890,194.386978 
M631.122620,189.514984 
	C631.122620,185.900162 631.122620,182.285339 631.122620,178.453110 
	C625.240112,177.868256 627.335327,181.973053 627.108154,184.265274 
	C626.826050,187.112015 627.040466,190.007980 627.040466,192.968384 
	C620.593445,188.986649 620.891541,178.483078 611.208130,178.242035 
	C611.208130,186.607529 611.208130,194.184586 611.208130,201.761627 
	C611.749207,201.875732 612.290344,201.989822 612.831421,202.103912 
	C618.028015,197.963089 612.966064,191.086624 615.898987,185.810577 
	C618.140991,189.082703 620.015869,192.381180 622.445740,195.201340 
	C624.715332,197.835449 625.311401,203.076050 631.118958,201.615250 
	C631.118958,197.771729 631.118958,194.133881 631.122620,189.514984 
M765.258911,178.893753 
	C763.582092,178.706421 761.905334,178.519104 760.164795,178.324646 
	C760.164795,186.576233 760.164795,194.164902 760.164795,201.753555 
	C760.694824,201.866669 761.224854,201.979797 761.754883,202.092911 
	C767.032654,197.968918 761.863953,191.031433 764.594604,186.294373 
	C770.374207,190.607040 771.044312,200.061432 779.779053,202.418976 
	C779.779053,193.749847 779.779053,186.159744 779.779053,178.388657 
	C773.978271,177.958527 776.363525,182.177872 776.070129,184.444550 
	C775.706177,187.256241 775.982971,190.150864 775.982971,193.009659 
	C775.660767,193.028748 775.338623,193.047821 775.016418,193.066910 
	C771.946350,188.522751 768.876282,183.978592 765.258911,178.893753 
M688.843445,196.395309 
	C691.764465,197.094513 695.851929,194.299454 697.455811,198.803802 
	C698.745667,202.426147 700.858276,202.487839 704.029480,201.374832 
	C701.359314,194.314865 698.894714,187.468414 696.107605,180.755920 
	C695.646118,179.644470 693.825195,178.605362 692.539001,178.478058 
	C691.433105,178.368591 689.506226,179.334885 689.123169,180.296051 
	C686.339050,187.282547 683.854065,194.388229 681.283508,201.431671 
	C686.804077,203.614532 685.735718,198.061646 688.843445,196.395309 
M395.276337,188.248840 
	C393.332062,188.248840 391.387817,188.248840 389.435303,188.248840 
	C389.435303,185.857086 389.435303,183.998322 389.435303,181.994781 
	C392.778107,181.994781 395.777435,182.146973 398.745087,181.907379 
	C399.706787,181.829742 400.585632,180.725510 401.502380,180.090866 
	C400.705383,179.493973 399.924377,178.407120 399.108734,178.380447 
	C394.176270,178.219147 389.235870,178.300156 384.283691,178.300156 
	C384.283691,186.491180 384.283691,194.053635 384.283691,201.656281 
	C390.157806,201.656281 395.722717,201.656281 402.380371,201.656281 
	C398.798370,195.359619 392.891388,200.067719 389.348389,197.562714 
	C389.348389,195.769287 389.348389,194.021393 389.348389,191.873947 
	C392.707428,191.873947 395.807983,191.873947 398.908539,191.873947 
	C399.135742,191.358475 399.362946,190.843002 399.590149,190.327530 
	C398.459747,189.632736 397.329315,188.937943 395.276337,188.248840 
M371.833038,193.733612 
	C371.238617,193.627823 370.223938,193.682053 370.113495,193.391983 
	C368.702179,189.685562 367.198578,185.989426 366.172028,182.168793 
	C365.258270,178.767807 363.623352,177.419861 359.715912,178.859070 
	C362.254120,186.022263 364.698639,193.163086 367.392761,200.208481 
	C367.717987,201.059067 369.387787,201.832031 370.442963,201.843353 
	C371.484131,201.854492 373.161377,201.094894 373.485016,200.257889 
	C376.208649,193.214355 378.685272,186.075317 381.236176,178.965012 
	C380.812103,178.584396 380.388031,178.203781 379.963928,177.823151 
	C378.679199,178.938797 376.840179,179.809113 376.216888,181.217484 
	C374.550110,184.983459 373.405060,188.980347 371.833038,193.733612 
M665.926819,195.701447 
	C666.666260,197.706406 667.405640,199.711380 668.465576,202.585449 
	C670.409790,201.730743 673.182007,201.398407 673.705200,200.134796 
	C676.584595,193.181290 678.914246,186.000122 681.432434,178.897064 
	C680.888550,178.496277 680.344666,178.095505 679.800781,177.694733 
	C678.572998,179.034714 676.995483,180.196869 676.201782,181.757584 
	C675.090759,183.942566 674.595886,186.435730 673.777161,188.775970 
	C673.067993,190.803146 672.274963,192.800995 671.151001,195.790726 
	C669.248779,190.429642 667.460388,186.169815 666.254089,181.751099 
	C665.226868,177.988586 663.219177,177.714600 659.868103,178.888306 
	C661.871704,184.433365 663.772400,189.693573 665.926819,195.701447 
M537.534729,179.395950 
	C531.715027,179.033676 525.897339,178.587250 520.072388,178.452408 
	C519.547852,178.440277 518.976746,180.440826 518.219177,181.910370 
	C521.075317,182.112854 523.021423,182.250824 525.559326,182.430740 
	C525.559326,188.974106 525.559326,195.334274 525.559326,202.026932 
	C527.589722,201.876053 528.985291,201.772339 530.780762,201.638901 
	C530.780762,195.046967 530.780762,188.789230 530.780762,183.515305 
	C533.542358,182.150894 535.578918,181.144730 537.534729,179.395950 
M439.372772,185.623932 
	C438.785461,179.687302 444.070068,183.469666 445.966278,181.663666 
	C445.740784,178.199432 445.740479,178.169220 432.072632,178.303864 
	C429.938782,178.324890 426.684540,177.307098 427.534576,181.862869 
	C429.756317,182.080017 431.839264,182.283600 434.297302,182.523834 
	C434.297302,189.043335 434.297302,195.319885 434.297302,201.756104 
	C436.153412,201.756104 437.593903,201.756104 438.973053,201.756104 
	C439.132965,201.224167 439.309113,200.907700 439.311462,200.589935 
	C439.345520,195.923965 439.356415,191.257797 439.372772,185.623932 
M715.390808,178.312378 
	C704.310974,178.302399 704.310974,178.302399 704.348755,181.940369 
	C706.402039,182.097717 708.476379,182.256683 710.889954,182.441635 
	C710.889954,189.025436 710.889954,195.288986 710.889954,201.978012 
	C712.796692,201.857300 714.290161,201.762741 716.162598,201.644180 
	C716.162598,194.841568 716.162598,188.593628 716.162598,182.383118 
	C718.659851,182.169983 720.739197,181.992523 723.000183,181.799545 
	C722.669312,176.100189 718.593506,179.123550 715.390808,178.312378 
M725.319397,193.417633 
	C725.319397,196.175369 725.319397,198.933090 725.319397,202.027374 
	C727.426636,201.881653 728.824463,201.784988 730.198486,201.689972 
	C730.198486,193.748810 730.198486,186.177200 730.198486,178.665771 
	C726.249817,177.455917 725.030640,178.880264 725.267334,182.464233 
	C725.486145,185.776886 725.317383,189.115143 725.319397,193.417633 
M327.664124,194.358521 
	C327.664124,196.797775 327.664124,199.237015 327.664124,201.981216 
	C329.618988,201.862717 331.026611,201.777390 332.469299,201.689941 
	C332.469299,193.780731 332.469299,186.215286 332.469299,178.291351 
	C330.732117,178.404800 329.339844,178.495712 327.664154,178.605133 
	C327.664154,183.788376 327.664154,188.594574 327.664124,194.358521 
M577.930298,185.613190 
	C577.930298,190.904251 577.930298,196.195297 577.930298,201.536697 
	C579.835938,201.536697 581.328186,201.536697 582.754883,201.536697 
	C582.754883,193.702377 582.754883,186.268066 582.754883,178.586121 
	C581.141663,178.586121 579.754578,178.586121 577.935059,178.586121 
	C577.935059,180.733719 577.935059,182.693115 577.930298,185.613190 
M454.022736,181.853210 
	C454.439545,177.375748 451.885986,178.084320 449.309998,178.742950 
	C449.309998,186.662582 449.309998,194.246918 449.309998,202.065765 
	C451.057373,201.881546 452.455536,201.734146 454.034332,201.567703 
	C454.034332,195.067413 454.034332,188.925095 454.022736,181.853210 
M212.361496,110.585014 
	C211.906235,111.768013 211.450974,112.951004 210.995712,114.133995 
	C211.529556,114.240761 212.063385,114.347527 212.597214,114.454292 
	C212.666870,113.343254 212.736511,112.232208 212.361496,110.585014 
M245.696304,72.529434 
	C245.593719,73.490311 245.491135,74.451180 245.388550,75.412048 
	C245.850082,75.390541 246.311600,75.369026 246.773132,75.347511 
	C246.632965,74.410683 246.492798,73.473846 245.696304,72.529434 
M251.385651,66.105331 
	C250.724640,65.996994 250.063644,65.888657 249.402649,65.780312 
	C249.467453,66.350502 249.532257,66.920692 249.597061,67.490883 
	C250.282089,67.226059 250.967102,66.961227 251.385651,66.105331 
M266.286926,144.538132 
	C266.398499,143.962112 266.510040,143.386093 266.621613,142.810074 
	C266.212799,142.804962 265.803986,142.799835 265.395172,142.794708 
	C265.492523,143.373444 265.589874,143.952194 266.286926,144.538132 
M279.278503,110.883629 
	C279.469971,111.425072 279.661438,111.966522 279.852905,112.507950 
	C280.130585,112.381111 280.408295,112.254272 280.686005,112.127441 
	C280.361359,111.570114 280.036713,111.012787 279.278503,110.883629 
M238.728653,65.904892 
	C238.231186,65.959648 237.733734,66.014404 237.236267,66.069160 
	C237.350616,66.514603 237.464966,66.960045 237.579315,67.405495 
	C238.004150,67.104012 238.428970,66.802536 238.728653,65.904892 
z"/>
<path fill="#259512" opacity="1.000000" stroke="none" 
	d="
M641.813171,99.326424 
	C641.813171,99.326424 641.886780,99.703964 642.020142,100.095230 
	C642.412903,100.684990 642.672241,100.883469 642.931519,101.081955 
	C642.931519,101.081970 643.004883,101.013062 643.005127,101.382660 
	C644.016785,103.096046 645.028259,104.439835 646.748901,106.725922 
	C646.748901,103.955948 646.748901,102.449867 646.748901,100.943787 
	C646.793823,99.568497 646.838745,98.193207 646.888306,95.953598 
	C646.807312,73.720947 646.721680,52.352612 646.636108,30.984274 
	C646.701721,30.239805 646.767395,29.495337 646.882690,27.961803 
	C646.868042,25.450762 646.803833,23.728783 646.739563,22.006804 
	C646.859741,21.652178 646.979919,21.297552 647.467712,20.700050 
	C648.219849,20.325176 648.604309,20.193178 648.988831,20.061176 
	C649.746460,20.109352 650.504028,20.157530 651.874390,20.238781 
	C652.650818,20.208292 652.814514,20.144732 652.978210,20.081173 
	C683.634827,20.139553 714.291443,20.239008 744.948059,20.241871 
	C765.377258,20.243778 778.933594,33.138126 780.146301,53.626583 
	C780.872620,65.898666 778.307922,77.068581 769.949524,86.427940 
	C792.210571,102.982750 790.457336,133.025558 778.835449,148.309433 
	C772.782837,156.269196 764.841858,160.603851 754.885620,160.642746 
	C720.057983,160.778839 685.229370,160.800507 650.402405,160.621323 
	C648.443787,160.611252 645.836914,158.871399 644.642761,157.160965 
	C626.531738,131.219193 608.608032,105.146667 590.632996,79.109940 
	C589.797668,77.899994 588.891907,76.738655 587.215027,74.464241 
	C587.215027,103.826958 587.215027,131.981018 587.215027,160.424164 
	C576.157898,160.424164 565.725159,160.424164 555.052246,160.424164 
	C554.875122,159.721954 554.510132,158.952148 554.511475,158.182968 
	C554.580811,118.192589 554.517456,78.200798 554.874023,38.212784 
	C554.987549,25.490530 560.465759,20.691084 573.218689,20.362679 
	C586.928040,20.009645 586.891174,20.034952 594.657043,31.354261 
	C608.221802,51.125687 621.837036,70.862534 635.714722,91.085785 
	C636.262268,91.776459 636.526062,91.995201 636.789917,92.213959 
	C636.789917,92.213959 636.976929,91.996712 636.929749,92.410980 
	C637.549438,93.614815 638.216248,94.404388 638.883179,95.193954 
	C639.128540,95.680695 639.373901,96.167442 639.882812,97.067490 
	C640.416504,97.668518 640.686707,97.856239 640.956848,98.043953 
	C640.956848,98.043945 641.000000,98.000305 640.989624,98.305061 
	C641.257202,98.848686 641.535217,99.087555 641.813171,99.326424 
M678.768677,103.038116 
	C678.185852,103.485893 677.100037,103.927727 677.094604,104.382317 
	C676.993469,112.953163 677.020142,121.525520 677.020142,130.404404 
	C699.672913,130.404404 721.616394,130.471558 743.559143,130.369400 
	C751.664856,130.331665 756.646729,124.909630 756.595154,116.694962 
	C756.540649,108.026794 751.647339,103.056664 743.083313,103.048958 
	C721.964050,103.029968 700.844788,103.037521 678.768677,103.038116 
M712.500000,76.974129 
	C720.486755,76.980141 728.473511,76.997025 736.460266,76.989037 
	C744.082397,76.981415 749.000549,71.673119 749.050659,63.432095 
	C749.101379,55.112270 744.401611,49.882133 736.636292,49.863686 
	C717.667908,49.818615 698.699341,49.858604 679.730835,49.880859 
	C678.954041,49.881771 678.177307,50.049942 677.312500,50.150417 
	C677.312500,59.194191 677.312500,67.908661 677.312500,76.974129 
	C688.930298,76.974129 700.215149,76.974129 712.500000,76.974129 
z"/>
<path fill="#8C9290" opacity="1.000000" stroke="none" 
	d="
M361.571472,157.597565 
	C339.021881,150.360489 328.404175,137.069504 328.002747,113.805344 
	C327.479614,83.487953 327.800415,53.155949 327.777130,22.830223 
	C327.776642,22.189165 328.007416,21.547934 328.244904,20.309006 
	C338.343323,20.309006 348.453796,20.204338 358.551666,20.512600 
	C359.338623,20.536623 360.669647,23.445808 360.681244,25.021910 
	C360.829956,45.183086 360.780609,65.345703 360.789001,85.507957 
	C360.792419,93.672684 360.894043,101.838226 360.811249,110.001984 
	C360.621185,128.742813 372.907227,133.739594 387.911377,133.464981 
	C389.571014,133.434601 391.225311,133.174545 392.884796,133.061172 
	C406.164734,132.154083 412.882446,125.200989 412.922028,111.838432 
	C413.006470,83.345024 412.931854,54.851154 412.922485,26.357471 
	C412.921906,24.552155 412.922424,22.746838 412.922424,20.567945 
	C461.042664,20.567945 508.722321,20.567945 557.281860,20.567945 
	C548.923035,28.331020 550.114990,38.079975 549.915283,48.245445 
	C543.072937,48.245445 536.495422,48.248943 529.917908,48.244717 
	C516.137024,48.235863 516.137451,48.234196 516.136902,61.980480 
	C516.135620,92.807076 516.133850,123.633667 516.132263,154.460266 
	C516.132202,156.406769 516.132263,158.353287 516.132263,160.546707 
	C505.219635,160.546707 494.960144,160.546707 484.114166,160.546707 
	C484.014984,158.373642 483.838196,156.292374 483.837280,154.211044 
	C483.822540,120.718399 483.747070,87.225304 483.932648,53.733673 
	C483.957275,49.287670 482.698578,47.996220 478.300751,48.143112 
	C468.813477,48.460003 459.304901,48.379524 449.811859,48.162518 
	C446.086395,48.077351 444.956482,49.280903 444.988525,53.019005 
	C445.155823,72.513275 445.082611,92.009750 445.062592,111.505432 
	C445.035614,137.779556 430.610199,154.687958 404.539764,158.959015 
	C390.275482,161.295898 376.058380,161.394028 361.571472,157.597565 
z"/>
<path fill="#E96A2B" opacity="1.000000" stroke="none" 
	d="
M222.111572,126.735741 
	C222.051895,126.316551 221.992203,125.897362 221.799744,124.986542 
	C221.601135,124.162346 221.402725,123.959160 221.071732,123.885376 
	C221.071732,123.885376 221.029907,123.970520 221.073792,123.568314 
	C219.791382,119.654495 218.465118,116.142891 217.138840,112.631279 
	C217.121170,112.250824 217.103516,111.870377 216.973358,110.979599 
	C216.642395,110.233665 216.423950,109.998047 216.205505,109.762436 
	C216.205505,109.762436 216.223877,109.882286 216.248596,109.515594 
	C215.916794,108.406258 215.560287,107.663612 215.203781,106.920967 
	C215.129837,106.483772 215.055878,106.046585 214.838394,104.950104 
	C210.388046,91.868065 206.081238,79.445305 201.774429,67.022552 
	C201.540237,67.088226 201.306061,67.153893 201.071869,67.219566 
	C201.071869,71.814323 201.071869,76.409088 201.071869,81.003845 
	C201.009933,106.997719 200.948013,132.991592 200.699417,159.578613 
	C200.271225,160.426041 200.029678,160.680328 199.788147,160.934601 
	C189.845047,160.873001 179.901932,160.811417 169.257416,160.493729 
	C168.330978,156.156601 168.105942,152.075562 167.974030,147.534744 
	C168.006454,141.385117 167.945786,135.695251 167.991196,129.554413 
	C168.414505,124.772751 168.731735,120.442070 169.417603,116.173874 
	C170.524521,116.155960 171.262802,116.075577 172.368195,116.104012 
	C173.488632,116.133629 174.241943,116.054420 175.325989,116.063446 
	C176.103607,116.084908 176.550537,116.018135 177.435928,116.070221 
	C179.763580,116.189087 181.652740,116.189087 183.942383,116.189087 
	C183.942383,111.869980 184.248383,108.240013 183.778992,104.713242 
	C183.611176,103.452354 181.676498,101.643166 180.360870,101.464516 
	C176.319229,100.915718 172.186859,101.035095 168.044830,100.937202 
	C167.999893,100.979660 168.107513,100.918968 168.148560,100.525764 
	C168.087097,99.086479 167.984589,98.040398 167.973984,96.533798 
	C168.006241,88.050674 167.946594,80.028069 167.992325,71.585312 
	C168.027451,69.441757 167.957199,67.718346 167.978210,65.534241 
	C168.007233,54.717419 167.945007,44.361271 167.988068,33.549576 
	C168.093369,29.148216 168.093369,25.202410 168.093369,20.931171 
	C170.394699,20.801239 172.020599,20.631853 173.646698,20.629915 
	C186.643951,20.614428 199.643570,20.767185 212.637009,20.546997 
	C216.154739,20.487383 217.507797,21.746786 218.571274,24.948265 
	C222.812500,37.716263 227.370956,50.378891 231.811981,63.080521 
	C231.884811,63.536900 231.957642,63.993279 232.171432,64.994644 
	C232.380325,65.886421 232.575409,66.132431 232.897644,66.277649 
	C232.897644,66.277649 232.836929,66.666168 232.928253,67.209915 
	C235.649994,75.243523 238.280396,82.733391 240.910797,90.223251 
	C240.950027,90.629654 240.989258,91.036064 241.210312,92.061356 
	C242.319092,95.124817 243.246033,97.569389 244.639374,101.243958 
	C246.697800,94.612213 248.344772,89.306038 249.991760,83.999870 
	C249.991760,83.999870 250.212921,83.749138 250.446304,83.313034 
	C253.166885,75.280205 255.654099,67.683472 258.141296,60.086739 
	C258.141296,60.086739 258.052460,60.035019 258.279419,59.980232 
	C258.732483,59.663437 258.785461,59.370174 258.665375,59.045647 
	C258.822937,58.667397 258.980530,58.289150 259.385712,57.340034 
	C260.166656,54.906918 260.699982,53.044666 261.233337,51.182419 
	C261.233337,51.182419 261.214050,51.081844 261.465881,50.899742 
	C262.746368,47.474857 263.775055,44.232075 264.803741,40.989292 
	C264.879730,40.839592 264.955719,40.689896 265.267029,40.024303 
	C267.311340,34.330402 268.932159,29.073532 271.048615,24.024387 
	C271.651306,22.586555 273.686890,20.798985 275.078247,20.787886 
	C290.383209,20.665789 305.690735,20.863348 320.997559,20.974220 
	C320.997559,67.326141 320.997559,113.678055 320.997559,160.419189 
	C309.945068,160.419189 299.377808,160.419189 288.529816,159.740646 
	C288.249054,128.432312 288.249054,97.802536 288.249054,67.172752 
	C287.894012,67.123772 287.538971,67.074799 287.183929,67.025826 
	C285.627869,71.698151 284.071777,76.370476 282.515686,81.042786 
	C282.274048,81.635689 282.032440,82.228584 281.586792,83.333298 
	C281.327698,84.218567 281.272675,84.592033 281.217590,84.965485 
	C281.074219,85.300964 280.930847,85.636436 280.537292,86.514626 
	C277.303345,95.713264 274.319550,104.369194 271.335754,113.025131 
	C271.184540,113.446404 271.033356,113.867676 270.641541,114.875839 
	C267.728607,123.313950 265.056274,131.165176 262.383972,139.016403 
	C262.203491,139.426819 262.023010,139.837234 261.566559,140.833221 
	C258.994965,147.874359 256.699341,154.329895 254.403732,160.785446 
	C253.817856,160.780991 253.231995,160.776550 252.251282,160.729218 
	C251.551743,160.781784 251.247009,160.877243 250.942291,160.972687 
	C247.947342,160.910599 244.952408,160.848511 241.403870,160.736847 
	C240.545395,160.781998 240.240540,160.876709 239.935669,160.971420 
	C239.935669,160.971420 239.508240,160.839325 239.176422,160.758957 
	C238.525162,160.769745 238.205719,160.860916 237.886276,160.952057 
	C236.353424,160.166367 234.820587,159.380692 233.113464,157.922516 
	C229.329987,147.078598 225.720779,136.907166 222.111572,126.735741 
z"/>
<path fill="#E96829" opacity="1.000000" stroke="none" 
	d="
M51.386139,128.907288 
	C51.323029,131.007996 51.259922,133.108719 51.182159,136.100983 
	C51.198212,144.641281 51.228920,152.290024 51.259624,159.938766 
	C46.841591,160.201126 42.425934,160.621033 38.004948,160.687759 
	C31.847504,160.780701 25.686068,160.609360 19.244659,159.834320 
	C18.877581,156.740601 18.792183,154.363708 18.706783,151.986801 
	C18.763266,151.240509 18.819748,150.494232 18.887653,148.972870 
	C18.835489,146.811111 18.771902,145.424438 18.708315,144.037766 
	C18.774429,121.318062 18.840544,98.598366 18.898319,75.056915 
	C18.829527,73.507103 18.769072,72.779045 18.708614,72.050987 
	C18.770325,70.646378 18.832037,69.241776 18.878481,67.085320 
	C19.017090,65.439644 19.170967,64.545815 19.380335,63.329666 
	C23.445740,65.717285 27.185343,67.913551 30.924946,70.109825 
	C30.924948,70.109825 30.982296,70.034248 31.030443,70.289368 
	C31.394049,70.653549 31.709509,70.762611 32.024967,70.871674 
	C32.476822,71.243347 32.928673,71.615021 33.839336,72.316383 
	C38.834061,75.476059 43.369972,78.306046 47.905884,81.136032 
	C47.905884,81.136032 47.961811,81.054909 48.021477,81.301918 
	C48.390652,81.684456 48.700165,81.819984 49.009674,81.955513 
	C49.447422,82.336945 49.885166,82.718369 50.796539,83.429466 
	C53.155628,84.878105 55.041088,85.997078 56.926548,87.116043 
	C56.926548,87.116043 56.984722,87.022919 57.105759,87.341049 
	C59.135853,88.798531 61.044914,89.937874 62.953976,91.077217 
	C62.953976,91.077217 62.990322,91.002899 63.128231,91.318039 
	C68.791786,95.139137 74.317429,98.645096 79.956490,102.385643 
	C80.386917,102.738342 80.703934,102.856453 81.205528,103.254684 
	C89.928452,109.017372 98.466789,114.499947 107.150551,120.259399 
	C108.213676,121.018005 109.131378,121.499741 110.119949,122.204208 
	C110.398247,122.710457 110.674515,122.819313 111.156395,122.908951 
	C111.293175,123.064392 111.703453,123.120552 111.898232,123.407639 
	C115.045380,125.490532 117.997742,127.286346 120.969864,129.043472 
	C120.989609,129.004776 120.920082,129.056885 121.080765,129.353897 
	C129.170303,134.748550 137.099152,139.846176 145.020355,144.974182 
	C145.012711,145.004562 145.062927,144.967117 145.222076,145.261963 
	C149.257721,147.990265 153.134216,150.423737 157.123138,152.998810 
	C157.235535,153.140427 157.592911,153.195511 157.782547,153.486649 
	C160.618439,155.602783 163.264694,157.427780 166.196899,159.449997 
	C165.249420,160.097687 164.616821,160.530136 163.984222,160.962585 
	C162.922882,160.908417 161.861542,160.854263 160.239594,160.718903 
	C159.112228,160.738647 158.545486,160.839600 157.978745,160.940552 
	C144.971405,160.883469 131.964050,160.826385 118.241882,160.623657 
	C113.309647,157.817307 109.076950,155.180466 104.877670,152.491440 
	C91.591583,143.983734 78.317993,135.456512 65.039566,126.936836 
	C65.039566,126.936836 65.000549,126.996521 64.872055,126.678139 
	C61.834625,124.565025 58.925682,122.770287 56.016739,120.975548 
	C56.016739,120.975548 56.001369,121.001358 55.838486,120.700089 
	C54.433117,119.700859 53.190628,119.002907 51.386139,117.989250 
	C51.386139,122.072586 51.386139,125.489937 51.386139,128.907288 
z"/>
<path fill="#8D9291" opacity="1.000000" stroke="none" 
	d="
M52.813713,70.661217 
	C69.034233,60.896076 85.247513,51.118893 101.477852,41.370094 
	C112.018707,35.038700 122.521927,28.639643 133.188477,22.526466 
	C135.492966,21.205725 138.406799,20.443703 141.072220,20.350973 
	C149.376663,20.062056 157.696594,20.217720 166.491577,20.489902 
	C164.646286,23.183550 162.319916,25.588280 159.687149,28.127140 
	C151.230881,35.451813 143.081024,42.642349 134.634628,49.974651 
	C132.915039,51.423759 131.491989,52.731106 129.752472,54.163074 
	C126.046478,57.385410 122.656960,60.483124 118.990707,63.692574 
	C117.483192,64.895004 116.252411,65.985687 114.722656,67.186508 
	C113.187790,68.473160 111.951920,69.649666 110.433258,70.972954 
	C108.766014,72.411446 107.381577,73.703163 105.758652,75.056587 
	C105.209007,75.288437 105.023659,75.548302 104.684204,76.016388 
	C103.562920,76.972923 102.721565,77.810989 101.559402,78.767761 
	C99.100105,80.794998 96.961632,82.703537 94.509277,84.752548 
	C91.721596,87.066010 89.399574,89.460457 86.703163,91.308685 
	C85.539543,92.106277 83.601631,91.774231 81.851334,91.669785 
	C79.457466,89.998749 77.227715,88.613274 74.997963,87.227798 
	C67.863342,82.553825 60.717556,77.896652 53.613838,73.176178 
	C53.000004,72.768280 52.664276,71.941864 52.455811,71.025269 
	C52.712257,70.740685 52.813713,70.661217 52.813713,70.661217 
z"/>
<path fill="#8D9290" opacity="1.000000" stroke="none" 
	d="
M52.485901,70.369339 
	C52.813713,70.661217 52.712257,70.740685 52.689667,70.752693 
	C51.134716,70.315575 49.398453,70.187744 48.102871,69.365517 
	C39.265450,63.756969 30.473930,58.071754 21.796576,52.220020 
	C20.498569,51.344685 19.106966,49.488693 19.066988,48.050007 
	C18.817940,39.087284 18.941433,30.114204 18.941433,20.680016 
	C29.570724,20.680016 39.921234,20.680016 50.825695,20.680016 
	C50.920013,22.341839 51.102020,24.093681 51.105629,25.845890 
	C51.130974,38.155098 51.064335,50.464836 51.166847,62.773239 
	C51.187145,65.210564 51.812016,67.642853 52.485901,70.369339 
z"/>
<path fill="#191919" opacity="1.000000" stroke="none" 
	d="
M416.146423,195.926895 
	C413.793304,192.578506 411.653839,189.521866 409.514374,186.465225 
	C409.208038,186.549606 408.901703,186.633972 408.595367,186.718353 
	C408.595367,191.554886 408.595367,196.391403 408.595367,201.581085 
	C406.911133,201.717377 405.725525,201.813309 404.282043,201.930099 
	C404.282043,194.040115 404.282043,186.469650 404.282043,178.202744 
	C414.207062,178.362411 413.789795,188.747421 420.294067,192.818222 
	C420.294067,189.087296 420.108124,185.446762 420.396973,181.844284 
	C420.495422,180.616287 421.787842,179.484055 422.534729,178.308075 
	C423.208984,179.371689 424.437256,180.420166 424.466827,181.501404 
	C424.647888,188.126160 424.557465,194.758316 424.557465,201.446716 
	C419.184204,203.440964 418.605530,198.550735 416.146423,195.926895 
z"/>
<path fill="#181818" opacity="1.000000" stroke="none" 
	d="
M344.404022,182.499481 
	C346.915039,186.160110 349.212677,189.519577 351.510315,192.879028 
	C351.822052,192.810394 352.133820,192.741760 352.445557,192.673126 
	C352.445557,188.008377 352.445557,183.343613 352.445557,178.678848 
	C352.937286,178.382416 353.429016,178.085968 353.920746,177.789520 
	C354.876343,178.760727 356.624939,179.704254 356.659943,180.707581 
	C356.902161,187.650040 356.787567,194.604950 356.787567,202.653015 
	C347.718933,200.262695 347.090515,190.878784 340.747864,186.329224 
	C340.747864,191.519745 340.747864,196.346649 340.747864,201.165863 
	C337.401825,202.622452 336.110901,201.950012 336.166382,198.631775 
	C336.274536,192.165527 336.198090,185.696198 336.198090,179.131958 
	C340.221252,176.990555 342.466583,178.909927 344.404022,182.499481 
z"/>
<path fill="#191919" opacity="1.000000" stroke="none" 
	d="
M500.546387,201.931396 
	C496.286224,196.815201 492.424072,191.737045 487.788635,185.642136 
	C487.788635,191.644562 487.788635,196.610352 487.788635,201.576141 
	C487.233734,201.871918 486.678802,202.167694 486.123901,202.463470 
	C485.160553,201.389740 483.405914,200.346344 483.363403,199.237320 
	C483.104095,192.474686 483.233887,185.697144 483.233887,178.933670 
	C486.670807,177.660614 488.840546,178.211777 490.638245,181.219193 
	C493.057770,185.266769 495.917908,189.050949 499.414948,194.153366 
	C499.414948,188.150864 499.414948,183.613419 499.414948,178.944107 
	C502.206665,177.898819 503.850555,177.883316 503.820282,181.248993 
	C503.766510,187.225601 503.944336,193.208557 503.693573,199.174911 
	C503.652863,200.143234 501.903809,201.039749 500.546387,201.931396 
z"/>
<path fill="#121212" opacity="1.000000" stroke="none" 
	d="
M591.265320,178.435211 
	C595.083618,183.362839 598.533569,188.193848 602.039551,193.103210 
	C605.221375,188.644135 599.609985,181.763718 606.666504,177.143127 
	C606.666504,186.225845 606.666504,193.944366 606.666504,202.693237 
	C598.157654,199.894287 597.106873,190.982056 590.815002,185.835846 
	C590.815002,190.387817 590.698120,194.534454 590.853882,198.670853 
	C590.967712,201.694092 589.857544,202.634750 586.838867,201.511276 
	C586.838867,193.971802 586.838867,186.384338 586.838867,178.527084 
	C588.327515,178.457932 589.612244,178.398239 591.265320,178.435211 
z"/>
<path fill="#121212" opacity="1.000000" stroke="none" 
	d="
M754.264160,198.141663 
	C748.702332,203.080963 741.913208,203.644882 737.316895,199.831802 
	C732.996704,196.247849 732.056458,188.617538 735.291992,183.400284 
	C738.371216,178.435104 744.702454,176.592133 750.166992,179.070343 
	C756.781982,182.070328 758.668884,190.257050 754.264160,198.141663 
M751.256592,190.438263 
	C751.735901,182.659882 746.981873,180.569550 742.882874,182.291977 
	C738.064453,184.316711 738.774536,189.047272 739.150024,193.153687 
	C739.456665,196.507156 741.483337,198.817947 745.015381,198.731506 
	C749.660217,198.617813 751.113098,195.425613 751.256592,190.438263 
z"/>
<path fill="#101010" opacity="1.000000" stroke="none" 
	d="
M457.915894,185.304718 
	C462.131531,178.246704 468.265106,176.189392 474.361389,179.443970 
	C479.717316,182.303299 481.960754,189.528473 479.340149,195.478424 
	C476.811981,201.218430 470.595001,203.822876 464.320496,201.770554 
	C458.268951,199.791153 455.713654,193.481628 457.915894,185.304718 
M463.102234,185.782211 
	C463.088531,188.741501 462.466461,191.883698 463.281189,194.593918 
	C463.799347,196.317566 466.455780,198.492691 468.144257,198.484940 
	C470.121033,198.475891 472.747162,196.735229 473.872772,194.968964 
	C474.987610,193.219727 475.247559,190.317108 474.669983,188.260956 
	C474.031433,185.987778 472.449890,183.284180 470.494476,182.246552 
	C467.860168,180.848663 464.958832,182.018494 463.102234,185.782211 
z"/>
<path fill="#121212" opacity="1.000000" stroke="none" 
	d="
M543.748535,180.609283 
	C552.637695,175.691101 560.722473,178.802567 562.673828,187.532242 
	C563.843811,192.766205 561.543152,198.316986 557.140747,200.881866 
	C552.920288,203.340744 546.054199,202.568787 542.754822,199.264465 
	C539.236206,195.740585 538.341370,189.236908 540.845398,184.446945 
	C541.523621,183.149597 542.581482,182.050720 543.748535,180.609283 
M555.840637,183.840225 
	C553.127258,183.518997 549.698975,182.009613 547.848816,183.122910 
	C543.948486,185.469772 544.656189,190.079483 545.362488,194.021988 
	C545.932739,197.205215 548.389404,199.337143 551.424744,198.537186 
	C553.539185,197.979965 556.199036,195.762711 556.721619,193.786316 
	C557.469360,190.957932 556.488159,187.672379 555.840637,183.840225 
z"/>
<path fill="#111111" opacity="1.000000" stroke="none" 
	d="
M657.096436,194.766205 
	C653.117798,201.790970 647.550781,204.036285 641.193115,201.517868 
	C635.984802,199.454742 633.360352,193.719620 634.747925,187.433212 
	C636.094177,181.333969 640.810120,177.708511 646.959839,178.045135 
	C654.795105,178.474030 659.281738,185.634094 657.096436,194.766205 
M641.974182,183.433472 
	C641.443542,187.087936 640.200623,190.816986 640.573364,194.376862 
	C640.983643,198.295273 645.777771,199.894241 649.177917,197.931870 
	C652.033752,196.283630 653.500793,188.970428 651.474548,185.120117 
	C649.439636,181.253250 646.221619,181.010818 641.974182,183.433472 
z"/>
<path fill="#101010" opacity="1.000000" stroke="none" 
	d="
M631.120789,190.005508 
	C631.118958,194.133881 631.118958,197.771729 631.118958,201.615250 
	C625.311401,203.076050 624.715332,197.835449 622.445740,195.201340 
	C620.015869,192.381180 618.140991,189.082703 615.898987,185.810577 
	C612.966064,191.086624 618.028015,197.963089 612.831421,202.103912 
	C612.290344,201.989822 611.749207,201.875732 611.208130,201.761627 
	C611.208130,194.184586 611.208130,186.607529 611.208130,178.242035 
	C620.891541,178.483078 620.593445,188.986649 627.040466,192.968384 
	C627.040466,190.007980 626.826050,187.112015 627.108154,184.265274 
	C627.335327,181.973053 625.240112,177.868256 631.122620,178.453110 
	C631.122620,182.285339 631.122620,185.900162 631.120789,190.005508 
z"/>
<path fill="#0F0F0F" opacity="1.000000" stroke="none" 
	d="
M765.532593,179.164093 
	C768.876282,183.978592 771.946350,188.522751 775.016418,193.066910 
	C775.338623,193.047821 775.660767,193.028748 775.982971,193.009659 
	C775.982971,190.150864 775.706177,187.256241 776.070129,184.444550 
	C776.363525,182.177872 773.978271,177.958527 779.779053,178.388657 
	C779.779053,186.159744 779.779053,193.749847 779.779053,202.418976 
	C771.044312,200.061432 770.374207,190.607040 764.594604,186.294373 
	C761.863953,191.031433 767.032654,197.968918 761.754883,202.092911 
	C761.224854,201.979797 760.694824,201.866669 760.164795,201.753555 
	C760.164795,194.164902 760.164795,186.576233 760.164795,178.324646 
	C761.905334,178.519104 763.582092,178.706421 765.532593,179.164093 
z"/>
<path fill="#121212" opacity="1.000000" stroke="none" 
	d="
M688.403687,196.481979 
	C685.735718,198.061646 686.804077,203.614532 681.283508,201.431671 
	C683.854065,194.388229 686.339050,187.282547 689.123169,180.296051 
	C689.506226,179.334885 691.433105,178.368591 692.539001,178.478058 
	C693.825195,178.605362 695.646118,179.644470 696.107605,180.755920 
	C698.894714,187.468414 701.359314,194.314865 704.029480,201.374832 
	C700.858276,202.487839 698.745667,202.426147 697.455811,198.803802 
	C695.851929,194.299454 691.764465,197.094513 688.403687,196.481979 
M688.994995,191.775421 
	C690.907654,192.292725 692.820312,192.810043 695.698059,193.588364 
	C694.366516,189.820572 693.453979,187.238510 692.116211,183.453094 
	C690.795959,186.826508 689.985535,188.897095 688.994995,191.775421 
z"/>
<path fill="#191919" opacity="1.000000" stroke="none" 
	d="
M395.737610,188.245987 
	C397.329315,188.937943 398.459747,189.632736 399.590149,190.327530 
	C399.362946,190.843002 399.135742,191.358475 398.908539,191.873947 
	C395.807983,191.873947 392.707428,191.873947 389.348389,191.873947 
	C389.348389,194.021393 389.348389,195.769287 389.348389,197.562714 
	C392.891388,200.067719 398.798370,195.359619 402.380371,201.656281 
	C395.722717,201.656281 390.157806,201.656281 384.283691,201.656281 
	C384.283691,194.053635 384.283691,186.491180 384.283691,178.300156 
	C389.235870,178.300156 394.176270,178.219147 399.108734,178.380447 
	C399.924377,178.407120 400.705383,179.493973 401.502380,180.090881 
	C400.585632,180.725510 399.706787,181.829742 398.745087,181.907379 
	C395.777435,182.146973 392.778107,181.994781 389.435303,181.994781 
	C389.435303,183.998322 389.435303,185.857086 389.435303,188.248840 
	C391.387817,188.248840 393.332062,188.248840 395.737610,188.245987 
z"/>
<path fill="#F8FFF5" opacity="1.000000" stroke="none" 
	d="
M646.264282,31.002035 
	C646.721680,52.352612 646.807312,73.720947 646.796753,95.549828 
	C643.932800,96.324425 642.936829,95.170738 642.951599,92.327301 
	C643.048706,73.584023 642.927612,54.839207 643.127930,36.097569 
	C643.146118,34.395329 644.929138,32.711945 646.264282,31.002035 
z"/>
<path fill="#FCF8F2" opacity="1.000000" stroke="none" 
	d="
M159.993561,27.993011 
	C162.319916,25.588280 164.646286,23.183550 166.953766,20.435806 
	C168.644669,19.727114 170.348801,19.074802 172.065155,19.040857 
	C186.492203,18.755537 200.921326,18.520693 215.350311,18.488729 
	C216.594025,18.485975 218.441727,19.780005 218.969055,20.943081 
	C220.307510,23.895113 220.882568,27.183504 222.083511,30.210155 
	C223.536224,33.871323 225.534378,37.322491 226.889221,41.014011 
	C227.959137,43.929153 228.368134,47.082020 229.154785,50.107433 
	C229.813095,52.639294 230.633804,55.128708 231.304855,57.657551 
	C231.743362,59.310093 232.043030,60.999477 232.108429,62.876438 
	C227.370956,50.378891 222.812500,37.716263 218.571274,24.948265 
	C217.507797,21.746786 216.154739,20.487383 212.637009,20.546997 
	C199.643570,20.767185 186.643951,20.614428 173.646698,20.629915 
	C172.020599,20.631853 170.394699,20.801239 168.093369,20.931171 
	C168.093369,25.202410 168.093369,29.148216 167.628204,33.465088 
	C165.503098,30.992891 166.348709,25.075315 159.993561,27.993011 
z"/>
<path fill="#161616" opacity="1.000000" stroke="none" 
	d="
M371.942871,193.309540 
	C373.405060,188.980347 374.550110,184.983459 376.216888,181.217484 
	C376.840179,179.809113 378.679199,178.938797 379.963928,177.823151 
	C380.388031,178.203781 380.812103,178.584396 381.236176,178.965012 
	C378.685272,186.075317 376.208649,193.214355 373.485016,200.257889 
	C373.161377,201.094894 371.484131,201.854492 370.442963,201.843353 
	C369.387787,201.832031 367.717987,201.059067 367.392761,200.208481 
	C364.698639,193.163086 362.254120,186.022263 359.715912,178.859070 
	C363.623352,177.419861 365.258270,178.767807 366.172028,182.168793 
	C367.198578,185.989426 368.702179,189.685562 370.113495,193.391983 
	C370.223938,193.682053 371.238617,193.627823 371.942871,193.309540 
z"/>
<path fill="#151515" opacity="1.000000" stroke="none" 
	d="
M665.799927,195.327606 
	C663.772400,189.693573 661.871704,184.433365 659.868103,178.888306 
	C663.219177,177.714600 665.226868,177.988586 666.254089,181.751099 
	C667.460388,186.169815 669.248779,190.429642 671.151001,195.790726 
	C672.274963,192.800995 673.067993,190.803146 673.777161,188.775970 
	C674.595886,186.435730 675.090759,183.942566 676.201782,181.757584 
	C676.995483,180.196869 678.572998,179.034714 679.800781,177.694733 
	C680.344666,178.095505 680.888550,178.496277 681.432434,178.897064 
	C678.914246,186.000122 676.584595,193.181290 673.705200,200.134796 
	C673.182007,201.398407 670.409790,201.730743 668.465576,202.585449 
	C667.405640,199.711380 666.666260,197.706406 665.799927,195.327606 
z"/>
<path fill="#FCF8F2" opacity="1.000000" stroke="none" 
	d="
M282.892151,81.063614 
	C284.071777,76.370476 285.627869,71.698151 287.183929,67.025826 
	C287.538971,67.074799 287.894012,67.123772 288.249054,67.172752 
	C288.249054,97.802536 288.249054,128.432312 288.191101,159.527405 
	C287.422577,158.410065 286.110901,156.833542 286.094696,155.243835 
	C285.938965,139.925552 286.114655,124.603882 285.956757,109.285645 
	C285.868530,100.727623 285.376801,92.171761 284.923462,83.622528 
	C284.877167,82.749702 283.843872,81.929207 282.892151,81.063614 
z"/>
<path fill="#1C1C1C" opacity="1.000000" stroke="none" 
	d="
M537.575073,179.767258 
	C535.578918,181.144730 533.542358,182.150894 530.780762,183.515305 
	C530.780762,188.789230 530.780762,195.046967 530.780762,201.638901 
	C528.985291,201.772339 527.589722,201.876053 525.559326,202.026932 
	C525.559326,195.334274 525.559326,188.974106 525.559326,182.430740 
	C523.021423,182.250824 521.075317,182.112854 518.219177,181.910370 
	C518.976746,180.440826 519.547852,178.440277 520.072388,178.452408 
	C525.897339,178.587250 531.715027,179.033676 537.575073,179.767258 
z"/>
<path fill="#1B1B1B" opacity="1.000000" stroke="none" 
	d="
M439.372803,186.107819 
	C439.356415,191.257797 439.345520,195.923965 439.311462,200.589935 
	C439.309113,200.907700 439.132965,201.224167 438.973053,201.756104 
	C437.593903,201.756104 436.153412,201.756104 434.297302,201.756104 
	C434.297302,195.319885 434.297302,189.043335 434.297302,182.523834 
	C431.839264,182.283600 429.756317,182.080017 427.534576,181.862869 
	C426.684540,177.307098 429.938782,178.324890 432.072632,178.303864 
	C445.740479,178.169220 445.740784,178.199432 445.966278,181.663666 
	C444.070068,183.469666 438.785461,179.687302 439.372803,186.107819 
z"/>
<path fill="#161616" opacity="1.000000" stroke="none" 
	d="
M715.863342,178.321518 
	C718.593506,179.123550 722.669312,176.100189 723.000183,181.799545 
	C720.739197,181.992523 718.659851,182.169983 716.162598,182.383118 
	C716.162598,188.593628 716.162598,194.841568 716.162598,201.644180 
	C714.290161,201.762741 712.796692,201.857300 710.889954,201.978012 
	C710.889954,195.288986 710.889954,189.025436 710.889954,182.441635 
	C708.476379,182.256683 706.402039,182.097717 704.348755,181.940369 
	C704.310974,178.302399 704.310974,178.302399 715.863342,178.321518 
z"/>
<path fill="#FCF8F2" opacity="1.000000" stroke="none" 
	d="
M65.058746,127.291489 
	C78.317993,135.456512 91.591583,143.983734 104.877670,152.491440 
	C109.076950,155.180466 113.309647,157.817307 117.779747,160.696167 
	C116.571861,160.973022 114.725792,161.638657 113.711609,160.994522 
	C105.526276,155.795776 97.573532,150.230591 89.383476,145.039658 
	C86.081573,142.946884 82.017471,141.975082 78.916496,139.665649 
	C74.030067,136.026489 69.664177,131.688370 65.058746,127.291489 
z"/>
<path fill="#FCF8F2" opacity="1.000000" stroke="none" 
	d="
M320.915344,20.583458 
	C305.690735,20.863348 290.383209,20.665789 275.078247,20.787886 
	C273.686890,20.798985 271.651306,22.586555 271.048615,24.024387 
	C268.932159,29.073532 267.311340,34.330402 265.258545,39.772629 
	C265.239838,38.259834 265.464966,36.482822 265.844025,33.961376 
	C266.331970,31.477886 266.665985,29.738827 267.000000,27.999771 
	C267.860779,24.944311 268.721558,21.888851 269.536133,18.997448 
	C279.038971,18.997448 289.383606,18.997517 299.728210,18.997419 
	C305.268951,18.997368 310.811737,18.913841 316.349030,19.051613 
	C317.852295,19.089014 319.338898,19.794071 320.915344,20.583458 
z"/>
<path fill="#1E1E1E" opacity="1.000000" stroke="none" 
	d="
M725.319336,192.929871 
	C725.317383,189.115143 725.486145,185.776886 725.267334,182.464233 
	C725.030640,178.880264 726.249817,177.455917 730.198486,178.665771 
	C730.198486,186.177200 730.198486,193.748810 730.198486,201.689972 
	C728.824463,201.784988 727.426636,201.881653 725.319397,202.027374 
	C725.319397,198.933090 725.319397,196.175369 725.319336,192.929871 
z"/>
<path fill="#171717" opacity="1.000000" stroke="none" 
	d="
M327.664124,193.879654 
	C327.664154,188.594574 327.664154,183.788376 327.664154,178.605133 
	C329.339844,178.495712 330.732117,178.404800 332.469299,178.291351 
	C332.469299,186.215286 332.469299,193.780731 332.469299,201.689941 
	C331.026611,201.777390 329.618988,201.862717 327.664124,201.981216 
	C327.664124,199.237015 327.664124,196.797775 327.664124,193.879654 
z"/>
<path fill="#0F0F0F" opacity="1.000000" stroke="none" 
	d="
M577.932678,185.132843 
	C577.935059,182.693115 577.935059,180.733719 577.935059,178.586121 
	C579.754578,178.586121 581.141663,178.586121 582.754883,178.586121 
	C582.754883,186.268066 582.754883,193.702377 582.754883,201.536697 
	C581.328186,201.536697 579.835938,201.536697 577.930298,201.536697 
	C577.930298,196.195297 577.930298,190.904251 577.932678,185.132843 
z"/>
<path fill="#0D0D0D" opacity="1.000000" stroke="none" 
	d="
M454.028534,182.317993 
	C454.034332,188.925095 454.034332,195.067413 454.034332,201.567703 
	C452.455536,201.734146 451.057373,201.881546 449.309998,202.065765 
	C449.309998,194.246918 449.309998,186.662582 449.309998,178.742950 
	C451.885986,178.084320 454.439545,177.375748 454.028534,182.317993 
z"/>
<path fill="#FCF8F2" opacity="1.000000" stroke="none" 
	d="
M201.451721,81.010941 
	C201.071869,76.409088 201.071869,71.814323 201.071869,67.219566 
	C201.306061,67.153893 201.540237,67.088226 201.774429,67.022552 
	C206.081238,79.445305 210.388046,91.868065 214.681793,104.654648 
	C212.449493,100.561348 210.116180,96.156425 208.046448,91.630943 
	C206.326004,87.869194 206.460037,83.067719 201.451721,81.010941 
z"/>
<path fill="#FCF8F2" opacity="1.000000" stroke="none" 
	d="
M222.038513,127.137016 
	C225.720779,136.907166 229.329987,147.078598 232.923340,157.627914 
	C231.113739,158.499298 229.319977,158.992798 227.581787,159.471008 
	C231.543076,149.627914 225.742416,142.061081 222.221893,133.924362 
	C221.432632,132.100174 222.014709,129.682648 222.038513,127.137016 
z"/>
<path fill="#FEFCFE" opacity="1.000000" stroke="none" 
	d="
M74.990631,87.590500 
	C77.227715,88.613274 79.457466,89.998749 81.871887,92.004623 
	C81.642937,93.415512 81.376198,94.349228 80.779488,94.961182 
	C79.986694,95.774239 78.936584,96.336403 77.626862,97.005661 
	C75.837799,96.336647 74.418900,95.668320 73.000000,95.000000 
	C73.661095,92.651070 74.322197,90.302132 74.990631,87.590500 
z"/>
<path fill="#FCF8F2" opacity="1.000000" stroke="none" 
	d="
M164.214676,161.240234 
	C164.616821,160.530136 165.249420,160.097687 166.196899,159.449997 
	C163.264694,157.427780 160.618439,155.602783 158.218079,153.432922 
	C162.696564,154.326263 166.542358,154.896118 166.592316,148.559189 
	C166.593826,148.367584 167.432541,148.182602 167.880905,147.994537 
	C168.105942,152.075562 168.330978,156.156601 168.796280,160.572235 
	C167.506073,161.110504 165.975601,161.314194 164.214676,161.240234 
z"/>
<path fill="#FCF8F2" opacity="1.000000" stroke="none" 
	d="
M271.693970,113.006958 
	C274.319550,104.369194 277.303345,95.713264 280.563416,86.789841 
	C279.298950,95.805496 278.191223,105.232407 271.693970,113.006958 
z"/>
<path fill="#FCF8F2" opacity="1.000000" stroke="none" 
	d="
M30.950085,69.704498 
	C27.185343,67.913551 23.445740,65.717285 19.380335,63.329666 
	C19.170967,64.545815 19.017090,65.439644 18.778940,66.673553 
	C18.115801,64.738289 17.536936,62.462955 16.958069,60.187618 
	C17.491100,59.970108 18.024132,59.752598 18.557163,59.535088 
	C22.189211,61.721336 25.890152,63.805161 29.403288,66.168198 
	C30.247372,66.735947 30.467918,68.230721 30.950085,69.704498 
z"/>
<path fill="#FCF8F2" opacity="1.000000" stroke="none" 
	d="
M72.688843,94.846794 
	C74.418900,95.668320 75.837799,96.336647 77.833679,97.266602 
	C79.272629,97.687050 80.134605,97.845863 80.996338,98.252548 
	C80.996101,98.500435 80.993896,98.996201 80.736504,99.195618 
	C80.359756,100.233887 80.240402,101.072739 80.049736,101.969345 
	C79.978424,102.027107 79.843079,102.151054 79.843079,102.151054 
	C74.317429,98.645096 68.791786,95.139137 63.095390,91.343185 
	C66.075653,92.266670 69.226669,93.480125 72.688843,94.846794 
z"/>
<path fill="#FCF8F2" opacity="1.000000" stroke="none" 
	d="
M249.643600,84.055199 
	C248.344772,89.306038 246.697800,94.612213 244.639374,101.243958 
	C243.246033,97.569389 242.319092,95.124817 241.367889,92.327820 
	C243.114639,90.850151 245.098434,89.948517 246.589859,88.529419 
	C247.798767,87.379150 248.415863,85.606903 249.643600,84.055199 
z"/>
<path fill="#FCF8F2" opacity="1.000000" stroke="none" 
	d="
M254.827042,160.821823 
	C256.699341,154.329895 258.994965,147.874359 261.542542,141.170944 
	C261.858124,142.867935 262.568817,145.096710 261.863556,146.704239 
	C259.774506,151.465668 259.255096,156.998535 254.827042,160.821823 
z"/>
<path fill="#FCF8F2" opacity="1.000000" stroke="none" 
	d="
M47.940102,80.749039 
	C43.369972,78.306046 38.834061,75.476059 34.136005,72.353279 
	C35.442287,72.259331 37.155617,72.043037 38.331955,72.737007 
	C41.513252,74.613762 43.976601,78.527466 49.029839,74.770531 
	C48.558228,77.268845 48.266270,78.815453 47.940102,80.749039 
z"/>
<path fill="#FCF8F2" opacity="1.000000" stroke="none" 
	d="
M262.705811,138.929199 
	C265.056274,131.165176 267.728607,123.313950 270.656738,115.215149 
	C270.588837,117.222092 270.632812,119.610321 269.870972,121.705536 
	C267.770142,127.483238 265.332214,133.138367 262.705811,138.929199 
z"/>
<path fill="#FCF8F2" opacity="1.000000" stroke="none" 
	d="
M240.946136,89.788239 
	C238.280396,82.733391 235.649994,75.243523 233.034698,67.375229 
	C234.850662,70.506775 236.651505,74.016754 238.727554,78.102440 
	C239.333481,79.453003 239.664185,80.227859 239.994888,81.002724 
	C240.323761,83.786224 240.652618,86.569717 240.946136,89.788239 
z"/>
<path fill="#FCF8F2" opacity="1.000000" stroke="none" 
	d="
M257.766846,60.115810 
	C255.654099,67.683472 253.166885,75.280205 250.414337,83.148956 
	C250.064697,74.884674 254.060974,67.618217 257.766846,60.115810 
z"/>
<path fill="#FEFDFE" opacity="1.000000" stroke="none" 
	d="
M267.000000,27.564850 
	C266.665985,29.738827 266.331970,31.477886 265.996521,33.608395 
	C262.358917,33.823288 261.511810,31.844616 262.686829,28.712862 
	C263.686279,26.049021 264.819824,23.435493 266.464935,19.398878 
	C266.696838,22.749681 266.848419,24.939806 267.000000,27.564850 
z"/>
<path fill="#FCF8F2" opacity="1.000000" stroke="none" 
	d="
M51.487907,159.690384 
	C51.228920,152.290024 51.198212,144.641281 51.276459,136.542664 
	C51.495674,143.875870 51.605934,151.658936 51.487907,159.690384 
z"/>
<path fill="#FDFDFF" opacity="1.000000" stroke="none" 
	d="
M240.315094,80.870407 
	C239.664185,80.227859 239.333481,79.453003 239.000244,78.340668 
	C241.507294,78.194412 244.016846,78.385628 247.031631,78.615334 
	C246.292343,81.414726 245.831299,83.160515 245.285385,85.227661 
	C243.394897,83.402435 242.015091,82.070259 240.315094,80.870407 
z"/>
<path fill="#FCF8F2" opacity="1.000000" stroke="none" 
	d="
M56.007294,121.381958 
	C58.925682,122.770287 61.834625,124.565025 64.901604,126.658211 
	C63.148994,126.507851 61.238350,126.059036 58.870388,125.502792 
	C58.228085,126.350349 57.321918,127.546097 56.415752,128.741837 
	C56.043240,128.671402 55.670723,128.600952 55.298210,128.530502 
	C55.531422,126.283127 55.764637,124.035751 56.007294,121.381958 
z"/>
<path fill="#FCF8F2" opacity="1.000000" stroke="none" 
	d="
M56.918159,86.746689 
	C55.041088,85.997078 53.155628,84.878105 51.095066,83.484543 
	C54.172745,80.033394 54.376942,80.141373 56.918159,86.746689 
z"/>
<path fill="#FCF8F2" opacity="1.000000" stroke="none" 
	d="
M264.447968,41.046703 
	C263.775055,44.232075 262.746368,47.474857 261.442871,50.945488 
	C262.142731,47.816929 263.117462,44.460522 264.447968,41.046703 
z"/>
<path fill="#FCF8F2" opacity="1.000000" stroke="none" 
	d="
M217.094223,113.079254 
	C218.465118,116.142891 219.791382,119.654495 221.117279,123.549423 
	C217.606064,121.306610 216.822876,117.614296 217.094223,113.079254 
z"/>
<path fill="#FCF8F2" opacity="1.000000" stroke="none" 
	d="
M51.591110,128.596436 
	C51.386139,125.489937 51.386139,122.072586 51.386139,117.989250 
	C53.190628,119.002907 54.433117,119.700859 55.850464,120.690071 
	C50.202660,120.860962 52.732346,125.576691 51.591110,128.596436 
z"/>
<path fill="#FCF8F2" opacity="1.000000" stroke="none" 
	d="
M260.891663,51.094704 
	C260.699982,53.044666 260.166656,54.906918 259.373871,57.029186 
	C258.517242,54.845562 257.920013,52.401913 257.171295,49.338272 
	C258.532806,50.010708 259.541382,50.508846 260.891663,51.094704 
z"/>
<path fill="#D3F1CD" opacity="1.000000" stroke="none" 
	d="
M646.365784,100.953362 
	C646.748901,102.449867 646.748901,103.955948 646.748901,106.725922 
	C645.028259,104.439835 644.016785,103.096046 642.962524,101.408852 
	C643.940674,101.031281 644.961670,100.997108 646.365784,100.953362 
z"/>
<path fill="#FCF8F2" opacity="1.000000" stroke="none" 
	d="
M18.372608,152.081116 
	C18.792183,154.363708 18.877581,156.740601 18.920452,159.561920 
	C18.598095,157.396042 18.318264,154.785721 18.372608,152.081116 
z"/>
<path fill="#FCF8F2" opacity="1.000000" stroke="none" 
	d="
M62.934189,90.707649 
	C61.044914,89.937874 59.135853,88.798531 57.059647,87.370850 
	C58.899803,88.167702 60.907104,89.252892 62.934189,90.707649 
z"/>
<path fill="#FCF8F2" opacity="1.000000" stroke="none" 
	d="
M212.583832,110.853088 
	C212.736511,112.232208 212.666870,113.343254 212.597214,114.454292 
	C212.063385,114.347527 211.529556,114.240761 210.995712,114.133995 
	C211.450974,112.951004 211.906235,111.768013 212.583832,110.853088 
z"/>
<path fill="#FCF8F2" opacity="1.000000" stroke="none" 
	d="
M18.437611,144.225281 
	C18.771902,145.424438 18.835489,146.811111 18.804836,148.605591 
	C18.529364,147.479874 18.348133,145.946320 18.437611,144.225281 
z"/>
<path fill="#FCF8F2" opacity="1.000000" stroke="none" 
	d="
M246.024475,72.533226 
	C246.492798,73.473846 246.632965,74.410683 246.773132,75.347511 
	C246.311600,75.369026 245.850082,75.390541 245.388550,75.412048 
	C245.491135,74.451180 245.593719,73.490311 246.024475,72.533226 
z"/>
<path fill="#FCF8F2" opacity="1.000000" stroke="none" 
	d="
M251.518890,66.400864 
	C250.967102,66.961227 250.282089,67.226059 249.597076,67.490883 
	C249.532257,66.920692 249.467453,66.350502 249.402649,65.780319 
	C250.063644,65.888657 250.724640,65.996994 251.518890,66.400864 
z"/>
<path fill="#FCF8F2" opacity="1.000000" stroke="none" 
	d="
M265.987091,144.534531 
	C265.589874,143.952194 265.492523,143.373444 265.395172,142.794708 
	C265.803986,142.799835 266.212799,142.804962 266.621613,142.810074 
	C266.510040,143.386093 266.398499,143.962112 265.987091,144.534531 
z"/>
<path fill="#D3F1CD" opacity="1.000000" stroke="none" 
	d="
M646.501282,22.271439 
	C646.803833,23.728783 646.868042,25.450762 646.818665,27.590881 
	C646.557678,26.184706 646.410339,24.360388 646.501282,22.271439 
z"/>
<path fill="#FCF8F2" opacity="1.000000" stroke="none" 
	d="
M279.495300,110.669540 
	C280.036713,111.012787 280.361359,111.570114 280.686005,112.127434 
	C280.408295,112.254272 280.130585,112.381111 279.852905,112.507965 
	C279.661438,111.966522 279.469971,111.425072 279.495300,110.669540 
z"/>
<path fill="#FCF8F2" opacity="1.000000" stroke="none" 
	d="
M238.791229,66.202972 
	C238.428970,66.802536 238.004150,67.104012 237.579315,67.405487 
	C237.464966,66.960045 237.350616,66.514603 237.236267,66.069160 
	C237.733734,66.014404 238.231186,65.959648 238.791229,66.202972 
z"/>
<path fill="#FCF8F2" opacity="1.000000" stroke="none" 
	d="
M214.913391,107.115036 
	C215.560287,107.663612 215.916794,108.406258 216.281448,109.464645 
	C215.734070,108.956627 215.178543,108.132866 214.913391,107.115036 
z"/>
<path fill="#D3F1CD" opacity="1.000000" stroke="none" 
	d="
M638.926025,94.817368 
	C638.216248,94.404388 637.549438,93.614815 636.829590,92.513870 
	C637.507385,92.948586 638.238159,93.694687 638.926025,94.817368 
z"/>
<path fill="#FCF8F2" opacity="1.000000" stroke="none" 
	d="
M158.122772,161.177368 
	C158.545486,160.839600 159.112228,160.738647 159.847504,160.796722 
	C159.432968,161.108566 158.849869,161.261368 158.122772,161.177368 
z"/>
<path fill="#FCF8F2" opacity="1.000000" stroke="none" 
	d="
M18.512585,72.248962 
	C18.769072,72.779045 18.829527,73.507103 18.806892,74.593407 
	C18.588055,74.116745 18.452305,73.281837 18.512585,72.248962 
z"/>
<path fill="#D3F1CD" opacity="1.000000" stroke="none" 
	d="
M648.838379,19.819027 
	C648.604309,20.193178 648.219849,20.325176 647.528320,20.425808 
	C647.710144,20.121918 648.199036,19.849396 648.838379,19.819027 
z"/>
<path fill="#FCF8F2" opacity="1.000000" stroke="none" 
	d="
M48.885708,81.733353 
	C48.700165,81.819984 48.390652,81.684456 47.973251,81.311981 
	C48.164150,81.220428 48.462948,81.365807 48.885708,81.733353 
z"/>
<path fill="#FCF8F2" opacity="1.000000" stroke="none" 
	d="
M232.891739,66.044174 
	C232.575409,66.132431 232.380325,65.886421 232.341980,65.299072 
	C232.645218,65.239304 232.816635,65.490028 232.891739,66.044174 
z"/>
<path fill="#FCF8F2" opacity="1.000000" stroke="none" 
	d="
M216.204056,110.007782 
	C216.423950,109.998047 216.642395,110.233665 216.841949,110.722939 
	C216.507095,110.829109 216.300262,110.587952 216.204056,110.007782 
z"/>
<path fill="#FCF8F2" opacity="1.000000" stroke="none" 
	d="
M31.892092,70.667419 
	C31.709509,70.762611 31.394049,70.653549 30.984818,70.302353 
	C31.233528,70.080185 31.522919,70.214508 31.892092,70.667419 
z"/>
<path fill="#D3F1CD" opacity="1.000000" stroke="none" 
	d="
M652.913574,19.894070 
	C652.814514,20.144732 652.650818,20.208292 652.248047,20.161272 
	C652.288940,19.936115 652.568909,19.821541 652.913574,19.894070 
z"/>
<path fill="#FCF8F2" opacity="1.000000" stroke="none" 
	d="
M221.090393,124.089508 
	C221.402725,123.959160 221.601135,124.162346 221.628891,124.715256 
	C221.349075,124.782532 221.188492,124.568542 221.090393,124.089508 
z"/>
<path fill="#D3F1CD" opacity="1.000000" stroke="none" 
	d="
M642.919312,100.832245 
	C642.672241,100.883469 642.412903,100.684990 642.155029,100.232353 
	C642.517334,100.042229 642.767578,100.243675 642.919312,100.832245 
z"/>
<path fill="#FCF8F2" opacity="1.000000" stroke="none" 
	d="
M258.499084,59.182777 
	C258.785461,59.370174 258.732483,59.663437 258.297089,60.028503 
	C258.062042,59.828552 258.143707,59.557999 258.499084,59.182777 
z"/>
<path fill="#D3F1CD" opacity="1.000000" stroke="none" 
	d="
M641.810791,99.037979 
	C641.535217,99.087555 641.257202,98.848686 640.966492,98.325111 
	C641.238647,98.276787 641.523560,98.513161 641.810791,99.037979 
z"/>
<path fill="#D3F1CD" opacity="1.000000" stroke="none" 
	d="
M640.932373,97.785294 
	C640.686707,97.856239 640.416504,97.668518 640.110962,97.224655 
	C640.353027,97.154556 640.630493,97.340599 640.932373,97.785294 
z"/>
<path fill="#FCF8F2" opacity="1.000000" stroke="none" 
	d="
M200.060608,160.864410 
	C200.029678,160.680328 200.271225,160.426041 200.743027,160.039825 
	C200.759872,160.203323 200.546463,160.498764 200.060608,160.864410 
z"/>
<path fill="#FCF8F2" opacity="1.000000" stroke="none" 
	d="
M238.184326,160.974380 
	C238.205719,160.860916 238.525162,160.769745 238.961975,160.822601 
	C238.880356,160.976654 238.681351,160.986664 238.184326,160.974380 
z"/>
<path fill="#FCF8F2" opacity="1.000000" stroke="none" 
	d="
M240.220886,160.987289 
	C240.240540,160.876709 240.545395,160.781998 240.963226,160.826385 
	C240.886169,160.978027 240.696136,160.990601 240.220886,160.987289 
z"/>
<path fill="#FCF8F2" opacity="1.000000" stroke="none" 
	d="
M281.423828,84.770554 
	C281.272675,84.592033 281.327698,84.218567 281.609161,83.658218 
	C281.767090,83.839424 281.698578,84.207520 281.423828,84.770554 
z"/>
<path fill="#FCF8F2" opacity="1.000000" stroke="none" 
	d="
M251.228455,160.987549 
	C251.247009,160.877243 251.551743,160.781784 251.971375,160.824371 
	C251.895706,160.975739 251.705154,160.989075 251.228455,160.987549 
z"/>
<path fill="#D3F1CD" opacity="1.000000" stroke="none" 
	d="
M636.783936,91.944351 
	C636.526062,91.995201 636.262268,91.776459 635.982422,91.288399 
	C636.236877,91.237640 636.507446,91.456200 636.783936,91.944351 
z"/>
<path fill="#FCFEFB" opacity="1.000000" stroke="none" 
	d="
M679.247070,103.036255 
	C700.844788,103.037521 721.964050,103.029968 743.083313,103.048958 
	C751.647339,103.056664 756.540649,108.026794 756.595154,116.694962 
	C756.646729,124.909630 751.664856,130.331665 743.559143,130.369400 
	C721.616394,130.471558 699.672913,130.404404 677.020142,130.404404 
	C677.020142,121.525520 676.993469,112.953163 677.094604,104.382317 
	C677.100037,103.927727 678.185852,103.485893 679.247070,103.036255 
z"/>
<path fill="#FAFEF9" opacity="1.000000" stroke="none" 
	d="
M712.000000,76.974129 
	C700.215149,76.974129 688.930298,76.974129 677.312500,76.974129 
	C677.312500,67.908661 677.312500,59.194191 677.312500,50.150417 
	C678.177307,50.049942 678.954041,49.881771 679.730835,49.880859 
	C698.699341,49.858604 717.667908,49.818615 736.636292,49.863686 
	C744.401611,49.882133 749.101379,55.112270 749.050659,63.432095 
	C749.000549,71.673119 744.082397,76.981415 736.460266,76.989037 
	C728.473511,76.997025 720.486755,76.980141 712.000000,76.974129 
z"/>
<path fill="#FEFEFE" opacity="1.000000" stroke="none" 
	d="
M167.974030,147.534760 
	C167.432541,148.182602 166.593826,148.367584 166.592316,148.559189 
	C166.542358,154.896118 162.696564,154.326263 158.028442,153.141785 
	C157.592911,153.195511 157.235535,153.140427 157.117874,152.637390 
	C154.369629,147.499283 150.448715,145.013275 145.062927,144.967117 
	C145.062927,144.967117 145.012711,145.004562 145.014099,144.584335 
	C144.451721,143.132904 144.148468,141.704803 143.281387,141.135681 
	C138.117554,137.746292 132.893936,134.432419 127.536522,131.361603 
	C125.545006,130.220078 123.137749,129.803864 120.920082,129.056885 
	C120.920082,129.056885 120.989609,129.004776 120.953217,128.670319 
	C119.685463,123.347275 115.808075,123.033203 111.703453,123.120552 
	C111.703453,123.120552 111.293175,123.064392 111.151077,122.704803 
	C111.008972,122.345207 110.958328,121.939400 110.970856,121.539764 
	C110.632820,117.160599 105.974655,113.365501 100.624191,112.992981 
	C99.168434,111.322945 98.083557,109.662392 97.140488,107.707001 
	C97.855103,106.273972 98.427902,105.135788 99.400589,103.997559 
	C100.866898,104.001091 101.933311,104.004654 102.949211,104.341309 
	C102.001068,105.750252 101.103424,106.826103 100.180946,107.931732 
	C104.973808,111.051979 109.202881,109.176559 112.378174,103.169556 
	C116.434792,103.291740 120.113060,103.266014 123.790787,103.207054 
	C126.673058,103.160858 130.491318,101.536621 129.534790,106.998459 
	C123.759392,106.999367 118.452271,106.999367 112.068649,106.999367 
	C116.990097,112.634552 127.345207,111.808693 130.462845,106.996735 
	C132.910751,106.996498 134.929062,107.213081 136.877258,106.936287 
	C138.861710,106.654343 141.805283,106.465805 142.510818,105.212715 
	C144.022400,102.528046 145.729752,102.816864 147.862366,103.465660 
	C150.378052,104.230988 152.532776,104.432022 152.982269,100.990334 
	C152.995514,100.990654 152.981339,100.967781 153.324936,100.922699 
	C155.649185,99.308792 155.769577,97.976639 153.087494,96.529099 
	C152.985001,91.237427 152.906021,86.405891 152.966385,81.576096 
	C153.082489,72.286079 153.277466,62.997059 153.517242,53.475857 
	C153.158905,52.244789 152.723083,51.245487 151.842941,49.227390 
	C147.753342,56.948505 138.938705,58.144142 134.615753,65.001480 
	C133.257538,65.159279 131.685913,65.000473 131.409103,65.524994 
	C129.342911,69.440109 125.686432,69.690178 121.749542,70.000198 
	C121.499702,70.000092 121.000000,70.000000 120.999985,69.562363 
	C120.422455,67.276756 119.844948,65.428795 119.267441,63.580833 
	C122.656960,60.483124 126.046478,57.385410 130.096100,54.312134 
	C132.377243,54.494442 133.998291,54.652317 136.116714,54.858627 
	C135.589096,52.621960 135.260132,51.227428 134.931152,49.832893 
	C143.081024,42.642349 151.230881,35.451813 159.687149,28.127144 
	C166.348709,25.075315 165.503098,30.992891 167.522919,33.920639 
	C167.945007,44.361271 168.007233,54.717419 167.622253,65.615982 
	C165.651291,68.321838 164.696472,70.416000 167.886948,72.005455 
	C167.946594,80.028069 168.006241,88.050674 167.633026,96.602875 
	C165.407852,98.896599 165.167435,100.288849 168.107513,100.918968 
	C168.107513,100.918968 167.999893,100.979660 168.050903,101.326462 
	C169.377335,105.067787 171.874435,103.948761 174.289185,103.410812 
	C180.856033,101.947876 182.802887,103.356941 181.785141,109.888458 
	C181.439880,112.104294 178.663101,113.941254 176.997452,115.951355 
	C176.550537,116.018135 176.103607,116.084908 175.142136,115.815430 
	C173.752075,115.651176 172.876572,115.823181 172.001068,115.995178 
	C171.262802,116.075577 170.524521,116.155960 169.213989,115.889206 
	C164.798080,115.107788 163.620682,116.751869 164.686386,120.402084 
	C165.275116,122.418510 165.445068,124.558411 166.050873,126.568176 
	C166.418396,127.787430 167.257721,128.864471 167.885101,130.005402 
	C167.945786,135.695251 168.006454,141.385117 167.974030,147.534760 
M140.052780,136.385803 
	C140.612015,135.812958 141.171249,135.240112 141.730499,134.667282 
	C140.817322,134.189148 139.904129,133.711029 138.990952,133.232895 
	C139.165543,134.142670 139.340118,135.052444 140.052780,136.385803 
M160.705338,104.563652 
	C160.989044,104.293007 161.272751,104.022369 161.556458,103.751724 
	C161.444229,103.634315 161.240646,103.408653 161.232971,103.415115 
	C160.933731,103.667702 160.652344,103.941444 160.705338,104.563652 
z"/>
<path fill="#FCF8F2" opacity="1.000000" stroke="none" 
	d="
M177.435928,116.070221 
	C178.663101,113.941254 181.439880,112.104294 181.785141,109.888458 
	C182.802887,103.356941 180.856033,101.947876 174.289185,103.410812 
	C171.874435,103.948761 169.377335,105.067787 168.095840,101.284012 
	C172.186859,101.035095 176.319229,100.915718 180.360870,101.464516 
	C181.676498,101.643166 183.611176,103.452354 183.778992,104.713242 
	C184.248383,108.240013 183.942383,111.869980 183.942383,116.189087 
	C181.652740,116.189087 179.763580,116.189087 177.435928,116.070221 
z"/>
<path fill="#FCF8F2" opacity="1.000000" stroke="none" 
	d="
M167.991180,129.554413 
	C167.257721,128.864471 166.418396,127.787430 166.050873,126.568176 
	C165.445068,124.558411 165.275116,122.418510 164.686386,120.402084 
	C163.620682,116.751869 164.798080,115.107788 168.845337,115.826736 
	C168.731735,120.442070 168.414505,124.772751 167.991180,129.554413 
z"/>
<path fill="#FCF8F2" opacity="1.000000" stroke="none" 
	d="
M167.992325,71.585312 
	C164.696472,70.416000 165.651291,68.321838 167.531006,66.076660 
	C167.957199,67.718346 168.027451,69.441757 167.992325,71.585312 
z"/>
<path fill="#FCF8F2" opacity="1.000000" stroke="none" 
	d="
M168.148560,100.525764 
	C165.167435,100.288849 165.407852,98.896599 167.541122,97.063393 
	C167.984589,98.040398 168.087097,99.086479 168.148560,100.525764 
z"/>
<path fill="#FCF8F2" opacity="1.000000" stroke="none" 
	d="
M172.368195,116.104004 
	C172.876572,115.823181 173.752075,115.651176 174.811432,115.727196 
	C174.241943,116.054420 173.488632,116.133629 172.368195,116.104004 
z"/>
<path fill="#FCF8F2" opacity="1.000000" stroke="none" 
	d="
M96.998672,108.001831 
	C98.083557,109.662392 99.168434,111.322945 100.773224,113.294952 
	C103.197121,115.731773 105.101128,117.857147 107.005135,119.982521 
	C98.466789,114.499947 89.928452,109.017372 81.227318,103.219734 
	C81.064529,102.904671 81.110023,102.835999 81.471069,102.871658 
	C83.275108,102.222115 84.727821,101.556511 86.158928,100.847313 
	C88.562546,99.656174 89.084251,100.910309 88.674965,103.041595 
	C88.356133,103.933060 88.135986,105.430664 88.392487,105.517311 
	C91.218491,106.471962 94.118629,107.207161 96.998672,108.001831 
z"/>
<path fill="#FCF8F2" opacity="1.000000" stroke="none" 
	d="
M121.080765,129.353897 
	C123.137749,129.803864 125.545006,130.220078 127.536522,131.361603 
	C132.893936,134.432419 138.117554,137.746292 143.281387,141.135681 
	C144.148468,141.704803 144.451721,143.132904 145.021759,144.553955 
	C137.099152,139.846176 129.170303,134.748550 121.080765,129.353897 
z"/>
<path fill="#FDFEFE" opacity="1.000000" stroke="none" 
	d="
M107.150551,120.259399 
	C105.101128,117.857147 103.197121,115.731773 101.144089,113.304428 
	C105.974655,113.365501 110.632820,117.160599 110.743782,121.550964 
	C110.504181,121.961800 110.049088,121.981476 110.049088,121.981476 
	C109.131378,121.499741 108.213676,121.018005 107.150551,120.259399 
z"/>
<path fill="#FCF8F2" opacity="1.000000" stroke="none" 
	d="
M145.222076,145.261963 
	C150.448715,145.013275 154.369629,147.499283 157.005463,152.495773 
	C153.134216,150.423737 149.257721,147.990265 145.222076,145.261963 
z"/>
<path fill="#FCF8F2" opacity="1.000000" stroke="none" 
	d="
M111.898232,123.407639 
	C115.808075,123.033203 119.685463,123.347275 120.933464,128.709015 
	C117.997742,127.286346 115.045380,125.490532 111.898232,123.407639 
z"/>
<path fill="#FCF8F2" opacity="1.000000" stroke="none" 
	d="
M81.042740,102.939621 
	C80.703934,102.856453 80.386917,102.738342 79.956490,102.385643 
	C79.843079,102.151054 79.978424,102.027107 80.241302,102.092705 
	C80.746475,102.348122 80.948425,102.574020 81.110023,102.835999 
	C81.110023,102.835999 81.064529,102.904671 81.042740,102.939621 
z"/>
<path fill="#FCF8F2" opacity="1.000000" stroke="none" 
	d="
M110.119949,122.204208 
	C110.049088,121.981476 110.504181,121.961800 110.731255,121.950600 
	C110.958328,121.939400 111.008972,122.345207 111.014297,122.549362 
	C110.674515,122.819313 110.398247,122.710457 110.119949,122.204208 
z"/>
<path fill="#FEFEFE" opacity="1.000000" stroke="none" 
	d="
M81.471069,102.871658 
	C80.948425,102.574020 80.746475,102.348122 80.312614,102.034943 
	C80.240402,101.072739 80.359756,100.233887 81.022354,99.163589 
	C81.873177,98.508331 82.180748,98.084518 82.488327,97.660706 
	C81.991074,97.775360 81.493828,97.890007 80.996582,98.004669 
	C80.134605,97.845863 79.272629,97.687050 78.203842,97.267303 
	C78.936584,96.336403 79.986694,95.774239 80.779488,94.961182 
	C81.376198,94.349228 81.642937,93.415512 82.036011,92.290192 
	C83.601631,91.774231 85.539543,92.106277 86.703163,91.308685 
	C89.399574,89.460457 91.721596,87.066010 94.670341,85.102318 
	C97.430389,87.874611 99.715500,90.437607 101.948166,93.338806 
	C99.931793,96.449455 97.967857,99.221909 95.847504,102.306953 
	C93.591072,105.114067 91.428955,106.493500 88.995003,102.992516 
	C89.084251,100.910309 88.562546,99.656174 86.158928,100.847313 
	C84.727821,101.556511 83.275108,102.222115 81.471069,102.871658 
z"/>
<path fill="#FCFCFC" opacity="1.000000" stroke="none" 
	d="
M102.000610,93.000610 
	C99.715500,90.437607 97.430389,87.874611 94.984207,84.961853 
	C96.961632,82.703537 99.100105,80.794998 101.600914,79.180756 
	C103.308220,80.316811 104.653198,81.158554 106.064613,82.354370 
	C108.693886,85.024704 109.896233,84.258766 109.999390,81.000610 
	C110.000000,81.000000 110.001831,80.998169 110.355423,80.993431 
	C111.472672,80.325798 112.236336,79.662903 113.365921,78.995865 
	C118.043243,77.424911 121.186523,74.784004 121.999390,70.000305 
	C125.686432,69.690178 129.342911,69.440109 131.409103,65.524994 
	C131.685913,65.000473 133.257538,65.159279 134.466858,65.305435 
	C133.511154,67.515228 132.318115,69.421234 131.011734,71.577225 
	C130.311401,72.237190 129.724426,72.647163 128.749954,73.038048 
	C124.759438,75.661514 120.987129,78.108101 117.616539,81.019730 
	C115.577225,82.781349 114.160637,85.263855 112.395416,87.348541 
	C112.326561,87.274612 112.400551,87.462631 112.033241,87.335831 
	C108.444153,89.139557 105.222382,91.070084 102.000610,93.000610 
z"/>
<path fill="#FEFEFE" opacity="1.000000" stroke="none" 
	d="
M113.000000,79.000000 
	C112.236336,79.662903 111.472672,80.325798 110.350800,80.632294 
	C108.660767,78.515556 107.328949,76.755211 105.997131,74.994873 
	C107.381577,73.703163 108.766014,72.411446 110.753502,71.130280 
	C112.570740,71.759224 113.784935,72.377632 114.948792,73.334259 
	C114.265640,75.448318 113.632820,77.224159 113.000000,79.000000 
z"/>
<path fill="#FCFCFC" opacity="1.000000" stroke="none" 
	d="
M118.990707,63.692574 
	C119.844948,65.428795 120.422455,67.276756 120.583054,69.562363 
	C118.776009,70.000610 117.385864,70.001221 115.737671,69.802055 
	C115.326950,68.760307 115.174286,67.918335 115.021629,67.076370 
	C116.252411,65.985687 117.483192,64.895004 118.990707,63.692574 
z"/>
<path fill="#FCFCFC" opacity="1.000000" stroke="none" 
	d="
M105.758652,75.056587 
	C107.328949,76.755211 108.660767,78.515556 109.997208,80.637032 
	C110.001831,80.998169 110.000000,81.000000 109.599754,81.000664 
	C108.133820,81.001900 107.068130,81.002472 105.961426,80.631790 
	C105.601654,78.806328 105.282890,77.352119 104.964127,75.897911 
	C105.023659,75.548302 105.209007,75.288437 105.758652,75.056587 
z"/>
<path fill="#FCFCFC" opacity="1.000000" stroke="none" 
	d="
M134.634613,49.974655 
	C135.260132,51.227428 135.589096,52.621960 136.116714,54.858627 
	C133.998291,54.652317 132.377243,54.494442 130.412567,54.187511 
	C131.491989,52.731106 132.915039,51.423759 134.634613,49.974655 
z"/>
<path fill="#FEFEFE" opacity="1.000000" stroke="none" 
	d="
M104.684204,76.016388 
	C105.282890,77.352119 105.601654,78.806328 105.960480,80.881088 
	C106.000542,81.501640 105.998169,82.000305 105.998169,82.000305 
	C104.653198,81.158554 103.308220,80.316811 101.921738,79.062057 
	C102.721565,77.810989 103.562920,76.972923 104.684204,76.016388 
z"/>
<path fill="#FCF8F2" opacity="1.000000" stroke="none" 
	d="
M114.722641,67.186508 
	C115.174286,67.918335 115.326950,68.760307 115.714111,70.120636 
	C115.632111,71.424675 115.315620,72.210358 114.999130,72.996033 
	C113.784935,72.377632 112.570740,71.759224 111.036301,70.983498 
	C111.951920,69.649666 113.187790,68.473160 114.722641,67.186508 
z"/>
<path fill="#F5F5F5" opacity="1.000000" stroke="none" 
	d="
M751.229492,190.868759 
	C751.113098,195.425613 749.660217,198.617813 745.015381,198.731506 
	C741.483337,198.817947 739.456665,196.507156 739.150024,193.153687 
	C738.774536,189.047272 738.064453,184.316711 742.882874,182.291977 
	C746.981873,180.569550 751.735901,182.659882 751.229492,190.868759 
z"/>
<path fill="#F4F4F4" opacity="1.000000" stroke="none" 
	d="
M463.257507,185.417450 
	C464.958832,182.018494 467.860168,180.848663 470.494476,182.246552 
	C472.449890,183.284180 474.031433,185.987778 474.669983,188.260956 
	C475.247559,190.317108 474.987610,193.219727 473.872772,194.968964 
	C472.747162,196.735229 470.121033,198.475891 468.144257,198.484940 
	C466.455780,198.492691 463.799347,196.317566 463.281189,194.593918 
	C462.466461,191.883698 463.088531,188.741501 463.257507,185.417450 
z"/>
<path fill="#F5F5F5" opacity="1.000000" stroke="none" 
	d="
M556.042969,184.211121 
	C556.488159,187.672379 557.469360,190.957932 556.721619,193.786316 
	C556.199036,195.762711 553.539185,197.979965 551.424744,198.537186 
	C548.389404,199.337143 545.932739,197.205215 545.362488,194.021988 
	C544.656189,190.079483 543.948486,185.469772 547.848816,183.122910 
	C549.698975,182.009613 553.127258,183.518997 556.042969,184.211121 
z"/>
<path fill="#F5F5F5" opacity="1.000000" stroke="none" 
	d="
M642.290466,183.173737 
	C646.221619,181.010818 649.439636,181.253250 651.474548,185.120117 
	C653.500793,188.970428 652.033752,196.283630 649.177917,197.931870 
	C645.777771,199.894241 640.983643,198.295273 640.573364,194.376862 
	C640.200623,190.816986 641.443542,187.087936 642.290466,183.173737 
z"/>
<path fill="#E1E1E1" opacity="1.000000" stroke="none" 
	d="
M689.085083,191.371552 
	C689.985535,188.897095 690.795959,186.826508 692.116211,183.453094 
	C693.453979,187.238510 694.366516,189.820572 695.698059,193.588364 
	C692.820312,192.810043 690.907654,192.292725 689.085083,191.371552 
z"/>
<path fill="#FEFCFE" opacity="1.000000" stroke="none" 
	d="
M80.996338,98.252548 
	C81.493828,97.890007 81.991074,97.775360 82.488327,97.660706 
	C82.180748,98.084518 81.873177,98.508331 81.279747,98.964172 
	C80.993896,98.996201 80.996101,98.500435 80.996338,98.252548 
z"/>
<path fill="#E8692B" opacity="1.000000" stroke="none" 
	d="
M129.137451,73.057152 
	C129.724426,72.647163 130.311401,72.237190 131.337006,71.459824 
	C133.543671,69.577988 135.266266,68.006302 137.088287,66.559830 
	C142.517822,62.249393 147.986404,57.988106 153.439728,53.707623 
	C153.277466,62.997059 153.082489,72.286079 152.966385,81.576096 
	C152.906021,86.405891 152.985001,91.237427 152.996323,96.919289 
	C152.988190,98.836197 152.984772,99.901985 152.981339,100.967781 
	C152.981339,100.967781 152.995514,100.990654 152.523163,101.079834 
	C134.424210,101.169006 116.797615,101.169006 98.016487,101.169006 
	C103.549248,95.896912 107.974899,91.679771 112.400551,87.462631 
	C112.400551,87.462631 112.326561,87.274612 112.707230,87.261299 
	C118.437752,82.517708 123.787605,77.787430 129.137451,73.057152 
z"/>
<path fill="#FCF8F2" opacity="1.000000" stroke="none" 
	d="
M112.033241,87.335831 
	C107.974899,91.679771 103.549248,95.896912 98.016487,101.169006 
	C116.797615,101.169006 134.424210,101.169006 152.509918,101.079514 
	C152.532776,104.432022 150.378052,104.230988 147.862366,103.465660 
	C145.729752,102.816864 144.022400,102.528046 142.510818,105.212715 
	C141.805283,106.465805 138.861710,106.654343 136.877258,106.936287 
	C134.929062,107.213081 132.910751,106.996498 130.461609,106.998215 
	C130.000000,107.000000 130.003052,106.997559 130.003052,106.997559 
	C130.491318,101.536621 126.673058,103.160858 123.790787,103.207054 
	C120.113060,103.266014 116.434792,103.291740 111.947784,103.167130 
	C108.425774,103.337723 105.712746,103.672974 102.999718,104.008224 
	C101.933311,104.004654 100.866898,104.001091 99.231972,103.744522 
	C97.776947,102.992470 96.890442,102.493416 96.003929,101.994362 
	C97.967857,99.221909 99.931793,96.449455 101.948166,93.338806 
	C105.222382,91.070084 108.444153,89.139557 112.033241,87.335831 
z"/>
<path fill="#FCF8F2" opacity="1.000000" stroke="none" 
	d="
M153.517242,53.475857 
	C147.986404,57.988106 142.517822,62.249393 137.088287,66.559830 
	C135.266266,68.006302 133.543671,69.577988 131.450348,71.209839 
	C132.318115,69.421234 133.511154,67.515228 134.853058,65.305267 
	C138.938705,58.144142 147.753342,56.948505 151.842941,49.227390 
	C152.723083,51.245487 153.158905,52.244789 153.517242,53.475857 
z"/>
<path fill="#FDFEFE" opacity="1.000000" stroke="none" 
	d="
M130.001236,106.998520 
	C127.345207,111.808693 116.990097,112.634552 112.068649,106.999367 
	C118.452271,106.999367 123.759392,106.999367 129.534790,106.998459 
	C130.003052,106.997559 130.000000,107.000000 130.001236,106.998520 
z"/>
<path fill="#FDFEFE" opacity="1.000000" stroke="none" 
	d="
M102.949211,104.341309 
	C105.712746,103.672974 108.425774,103.337723 111.569191,103.004898 
	C109.202881,109.176559 104.973808,111.051979 100.180946,107.931732 
	C101.103424,106.826103 102.001068,105.750252 102.949211,104.341309 
z"/>
<path fill="#FEFCFE" opacity="1.000000" stroke="none" 
	d="
M114.948792,73.334259 
	C115.315620,72.210358 115.632111,71.424675 115.972168,70.320419 
	C117.385864,70.001221 118.776009,70.000610 120.583069,70.000000 
	C121.000000,70.000000 121.499702,70.000092 121.749542,70.000198 
	C121.186523,74.784004 118.043243,77.424911 113.365913,78.995865 
	C113.632820,77.224159 114.265640,75.448318 114.948792,73.334259 
z"/>
<path fill="#FDFEFE" opacity="1.000000" stroke="none" 
	d="
M95.847504,102.306953 
	C96.890442,102.493416 97.776947,102.992470 98.832077,103.744560 
	C98.427902,105.135788 97.855103,106.273972 97.140488,107.707001 
	C94.118629,107.207161 91.218491,106.471962 88.392487,105.517311 
	C88.135986,105.430664 88.356133,103.933060 88.674965,103.041595 
	C91.428955,106.493500 93.591072,105.114067 95.847504,102.306953 
z"/>
<path fill="#FCF8F2" opacity="1.000000" stroke="none" 
	d="
M139.783752,136.174011 
	C139.340118,135.052444 139.165543,134.142670 138.990952,133.232895 
	C139.904129,133.711029 140.817322,134.189148 141.730499,134.667282 
	C141.171249,135.240112 140.612015,135.812958 139.783752,136.174011 
z"/>
<path fill="#FCF8F2" opacity="1.000000" stroke="none" 
	d="
M153.324936,100.922699 
	C152.984772,99.901985 152.988190,98.836197 153.082779,97.380211 
	C155.769577,97.976639 155.649185,99.308792 153.324936,100.922699 
z"/>
<path fill="#FCF8F2" opacity="1.000000" stroke="none" 
	d="
M160.536987,104.388031 
	C160.652344,103.941444 160.933731,103.667702 161.232971,103.415115 
	C161.240646,103.408653 161.444229,103.634315 161.556458,103.751724 
	C161.272751,104.022369 160.989044,104.293007 160.536987,104.388031 
z"/>
<path fill="#FCF8F2" opacity="1.000000" stroke="none" 
	d="
M128.749954,73.038055 
	C123.787605,77.787430 118.437752,82.517708 112.776085,87.335236 
	C114.160637,85.263855 115.577225,82.781349 117.616539,81.019730 
	C120.987129,78.108101 124.759438,75.661514 128.749954,73.038055 
z"/>
<path fill="#FCF8F2" opacity="1.000000" stroke="none" 
	d="
M106.064613,82.354370 
	C105.998169,82.000305 106.000542,81.501640 106.001495,81.252350 
	C107.068130,81.002472 108.133820,81.001900 109.599144,81.001274 
	C109.896233,84.258766 108.693886,85.024704 106.064613,82.354370 
z"/>
</svg>